<svg width="24" height="24" viewBox="0 0 24 24" fill="none" xmlns="http://www.w3.org/2000/svg">
<path fill-rule="evenodd" clip-rule="evenodd" d="M22.6915 5.22495C23.0641 5.57971 23.3327 6.02121 23.4704 6.50549C24.2631 9.54286 24.0799 14.3399 23.4857 17.4945C23.3481 17.9788 23.0795 18.4203 22.7069 18.7751C22.3342 19.1298 21.8704 19.3854 21.3616 19.5165C19.4992 20 12.0033 20 12.0033 20C12.0033 20 4.5073 20 2.64486 19.5165C2.13612 19.3854 1.67231 19.1298 1.29964 18.7751C0.926961 18.4203 0.658419 17.9788 0.520754 17.4945C-0.276556 14.4703 -0.0579885 9.67033 0.505362 6.52015C0.643027 6.03586 0.911568 5.59436 1.28424 5.2396C1.65692 4.88484 2.12072 4.62921 2.62947 4.49817C4.49191 4.01465 11.9879 4 11.9879 4C11.9879 4 19.4838 4 21.3462 4.48352C21.855 4.61456 22.3188 4.87019 22.6915 5.22495ZM15.0001 12L10.0001 15V9L15.0001 12Z" fill="white"/>
</svg>
