<svg width="145" height="30" viewBox="0 0 145 30" fill="none" xmlns="http://www.w3.org/2000/svg">
    <path d="M14.8418 24.2228H5.13843V17.3086H14.8418C16.7228 17.3086 18.2598 18.8631 18.2598 20.7657C18.2598 22.6914 16.7228 24.2228 14.8418 24.2228ZM14.8418 5.77729C16.5623 5.77729 17.9845 7.19261 17.9845 8.95595C17.9845 10.6961 16.5852 12.1346 14.8418 12.1346H5.13843V5.8005H14.8418V5.77729ZM23.1 8.95595C23.1 4.33878 19.4067 0.580078 14.8418 0.580078H0V29.42H14.8189C19.5444 29.42 23.3753 25.5453 23.3753 20.7657C23.3753 18.3759 22.4118 16.1949 20.8519 14.6404C22.2512 13.1555 23.1 11.1601 23.1 8.95595Z"
          fill="#353940"/>
    <path d="M72.0064 12.1114H62.303V5.77729H72.0064C73.7498 5.77729 75.1491 7.19261 75.1491 8.95595C75.1491 10.6961 73.7268 12.1114 72.0064 12.1114ZM80.2645 8.95595C80.2645 4.33878 76.5713 0.580078 72.0064 0.580078H57.1875V29.42H62.3259V17.3086H72.0293C73.9103 17.3086 75.4473 18.8631 75.4473 20.7657V29.42H80.5857V20.7657C80.5857 18.3759 79.6222 16.1949 78.0624 14.6404C79.4158 13.1555 80.2645 11.1601 80.2645 8.95595Z"
          fill="#353940"/>
    <path d="M88.5466 15.0116C88.5466 9.90722 92.6298 5.77729 97.6765 5.77729H106.233V0.580078H97.6765C89.8083 0.580078 83.4082 7.03019 83.4082 15.0116C83.4082 22.9931 89.7854 29.42 97.6765 29.42H106.233V24.2228H97.6765C92.6298 24.2228 88.5466 20.0928 88.5466 15.0116Z"
          fill="#353940"/>
    <path d="M122.908 24.8028C117.563 24.8028 113.205 20.4176 113.205 14.9884C113.205 9.58237 117.54 5.17402 122.908 5.17402C128.276 5.17402 132.611 9.55917 132.611 14.9884C132.588 20.4176 128.253 24.8028 122.908 24.8028ZM140.434 12.1114C138.736 12.1114 137.291 11.0441 136.718 9.53597C134.561 3.94432 129.193 0 122.908 0C116.623 0 111.255 3.94432 109.099 9.53597C108.525 11.0441 107.08 12.1114 105.382 12.1114H100.817V17.8886H105.382C107.08 17.8886 108.525 18.9559 109.099 20.464C111.255 26.0557 116.623 30 122.908 30C129.193 30 134.561 26.0325 136.718 20.464C137.291 18.9559 138.736 17.9118 140.434 17.9118H144.999V12.1346H140.434V12.1114Z"
          fill="#353940"/>
    <path d="M122.91 9.4668C119.882 9.4668 117.428 11.9494 117.428 15.012C117.428 18.0747 119.882 20.5573 122.91 20.5573C125.938 20.5573 128.393 18.0747 128.393 15.012C128.37 11.9494 125.938 9.4668 122.91 9.4668Z"
          fill="#353940"/>
    <path d="M46.4736 15.0116H33.3523V11.8329C33.3523 8.16705 36.2885 5.19722 39.913 5.19722C43.5374 5.19722 46.4736 8.16705 46.4736 11.8329V15.0116ZM39.913 0C33.467 0 28.2139 5.29002 28.2139 11.8329V29.42H33.3523V20.1856H46.4736V29.42H51.6121V11.8329C51.6121 5.29002 46.3819 0 39.913 0Z"
          fill="#353940"/>
</svg>
