<svg width="98" height="26" viewBox="0 0 98 26" fill="none" xmlns="http://www.w3.org/2000/svg">
<path d="M0.324707 1.09639H8.15965C9.95175 1.09639 12.0645 2.7321 13.0065 3.63168L26.7522 18.5251V1.09639H31.4218V24.875H23.2473C21.7909 24.8271 20.361 24.5346 18.6947 22.9345L4.9716 8.01405V24.875H0.324707L0.324707 1.09639Z" fill="#353940"/>
<path d="M97.6757 25.038C92.0831 25.7839 86.4251 25.8577 80.7557 25.3919C77.4369 25.1056 74.1859 24.4383 71.2066 22.9181C67.4451 21.0132 66.2466 16.7316 66.2969 12.8507C66.3384 9.26833 67.4288 5.4439 70.6998 3.36086C72.8441 1.98568 75.1342 1.53466 77.5677 1.10331C84.2104 -0.0408287 90.8657 0.217247 97.3462 0.911594V4.30345C89.7037 2.85208 81.631 3.21338 78.8882 6.64456C77.174 8.77922 76.9301 10.9028 76.9301 12.6909C76.9301 15.9132 78.0581 20.8019 84.7587 21.7518C89.1302 22.3786 93.4576 21.903 97.6757 21.1521V25.038Z" fill="#353940"/>
<path d="M49.8177 21.338C50.4792 21.3441 61.0117 21.392 64.6273 21.338V24.8908C57.3445 25.1649 50.3471 25.2841 42.9901 24.9854C36.7473 24.7335 35.672 21.6661 35.5513 18.7191V1.09499H64.279V4.4807H45.6939V10.5344H62.6328V13.839H45.6939C45.6939 15.6271 45.7543 17.6549 45.7719 18.0198C45.8713 20.3253 46.9654 21.1733 49.8177 21.338Z" fill="#353940"/>
</svg>
