<svg width="64" height="64" viewBox="0 0 64 64" fill="none" xmlns="http://www.w3.org/2000/svg">
<path d="M35.6389 51.9999H28.3589C27.4192 51.9999 26.6061 51.3459 26.4049 50.4279L25.591 46.6599C24.5051 46.1842 23.4754 45.5892 22.521 44.8859L18.847 46.0559C17.951 46.3417 16.9769 45.9645 16.507 45.1499L12.859 38.8479C12.3942 38.033 12.5543 37.0049 13.245 36.3699L16.095 33.77C15.9654 32.5922 15.9654 31.4037 16.095 30.226L13.245 27.632C12.5533 26.9967 12.3931 25.9674 12.859 25.152L16.499 18.846C16.9689 18.0314 17.943 17.6543 18.839 17.94L22.513 19.11C23.0011 18.7483 23.5092 18.4144 24.035 18.11C24.5396 17.8254 25.059 17.5677 25.591 17.338L26.4069 13.574C26.6071 12.6559 27.4193 12.001 28.3589 12H35.6389C36.5785 12.001 37.3908 12.6559 37.5909 13.574L38.4149 17.34C38.9765 17.587 39.5234 17.8661 40.0529 18.176C40.5468 18.4616 41.0242 18.7748 41.4829 19.114L45.1589 17.944C46.0543 17.6593 47.0271 18.0363 47.4969 18.85L51.1369 25.156C51.6017 25.9709 51.4416 26.999 50.7509 27.634L47.9009 30.234C48.0305 31.4117 48.0305 32.6002 47.9009 33.778L50.7509 36.3779C51.4416 37.0129 51.6017 38.041 51.1369 38.8559L47.4969 45.1619C47.0271 45.9756 46.0543 46.3526 45.1589 46.0679L41.4829 44.8979C41.0178 45.2405 40.5344 45.5577 40.0349 45.8479C39.5106 46.1517 38.9697 46.4262 38.4149 46.6699L37.5909 50.4279C37.39 51.3452 36.5779 51.9991 35.6389 51.9999ZM23.239 40.4579L24.879 41.6579C25.2487 41.9302 25.634 42.1807 26.033 42.4079C26.4084 42.6253 26.7949 42.8229 27.1909 42.9999L29.0569 43.8179L29.9709 47.9999H34.0309L34.9449 43.8159L36.8109 42.9979C37.6255 42.6387 38.3987 42.1921 39.1169 41.6659L40.7589 40.4659L44.8409 41.7659L46.8709 38.2499L43.7049 35.3639L43.9289 33.34C44.0273 32.4547 44.0273 31.5612 43.9289 30.676L43.7049 28.652L46.8729 25.76L44.8409 22.242L40.7589 23.542L39.1169 22.342C38.3985 21.8134 37.6254 21.3635 36.8109 21L34.9449 20.182L34.0309 16H29.9709L29.0529 20.184L27.1909 21C26.7946 21.1741 26.408 21.3697 26.033 21.586C25.6364 21.8126 25.2531 22.0617 24.885 22.332L23.243 23.532L19.163 22.232L17.129 25.76L20.295 28.642L20.071 30.668C19.9726 31.5532 19.9726 32.4467 20.071 33.332L20.295 35.3559L17.129 38.2419L19.159 41.7579L23.239 40.4579Z" fill="url(#paint0_linear_1806_29218)"/>
<path d="M23.239 40.4579L24.879 41.6579C25.2487 41.9302 25.634 42.1807 26.033 42.4079C26.4084 42.6253 26.7949 42.8229 27.1909 42.9999L29.0569 43.8179L29.9709 47.9999H34.0309L34.9449 43.8159L36.8109 42.9979C37.6255 42.6387 38.3987 42.1921 39.1169 41.6659L40.7589 40.4659L44.8409 41.7659L46.8709 38.2499L43.7049 35.3639L43.9289 33.34C44.0273 32.4547 44.0273 31.5612 43.9289 30.676L43.7049 28.652L46.8729 25.76L44.8409 22.242L40.7589 23.542L39.1169 22.342C38.3985 21.8134 37.6254 21.3635 36.8109 21L34.9449 20.182L34.0309 16H29.9709L29.0529 20.184L27.1909 21C26.7946 21.1741 26.408 21.3697 26.033 21.586C25.6364 21.8126 25.2531 22.0617 24.885 22.332L23.243 23.532L19.163 22.232L17.129 25.76L20.295 28.642L20.071 30.668C19.9726 31.5532 19.9726 32.4467 20.071 33.332L20.295 35.3559L17.129 38.2419L19.159 41.7579L23.239 40.4579Z" fill="url(#paint1_linear_1806_29218)"/>
<path d="M23.8303 32.0012C23.8303 36.5128 27.4878 40.1703 31.9995 40.1703C36.5088 40.1647 40.163 36.5105 40.1686 32.0012C40.1686 27.4895 36.5111 23.832 31.9995 23.832C27.4878 23.832 23.8303 27.4895 23.8303 32.0012Z" fill="url(#paint2_linear_1806_29218)"/>
<defs>
<linearGradient id="paint0_linear_1806_29218" x1="39.1685" y1="23.7391" x2="4.0773" y2="56.0973" gradientUnits="userSpaceOnUse">
<stop stop-color="#CFD6E4"/>
<stop offset="1" stop-color="white"/>
</linearGradient>
<linearGradient id="paint1_linear_1806_29218" x1="39.1685" y1="23.7391" x2="4.0773" y2="56.0973" gradientUnits="userSpaceOnUse">
<stop stop-color="#CFD6E4"/>
<stop offset="1" stop-color="white"/>
</linearGradient>
<linearGradient id="paint2_linear_1806_29218" x1="22.1484" y1="32.9622" x2="42.7015" y2="37.4706" gradientUnits="userSpaceOnUse">
<stop stop-color="#F0F1F5"/>
<stop offset="1" stop-color="white"/>
</linearGradient>
</defs>
</svg>
