<svg width="64" height="64" viewBox="0 0 64 64" fill="none" xmlns="http://www.w3.org/2000/svg">
<path fill-rule="evenodd" clip-rule="evenodd" d="M41.3088 25.4693H22.6571L17.389 16.3448C16.8029 15.3296 15.5048 14.9818 14.4897 15.5679C13.4745 16.154 13.1267 17.4521 13.7128 18.4672L17.7555 25.4693H12.8978C11.7256 25.4693 10.7754 26.4196 10.7754 27.5918V42.4489C10.7754 43.6211 11.7256 44.5713 12.8978 44.5713H51.1016C52.2738 44.5713 53.224 43.6211 53.224 42.4489V27.5918C53.224 26.4196 52.2738 25.4693 51.1016 25.4693H46.2103L50.253 18.4672C50.8391 17.4521 50.4913 16.154 49.4761 15.5679C48.461 14.9818 47.1629 15.3296 46.5768 16.3448L41.3088 25.4693Z" fill="url(#paint0_linear_1078_4258)"/>
<rect x="29.8779" y="32.8978" width="19.102" height="4.24489" rx="2.12244" fill="url(#paint1_linear_1078_4258)"/>
<rect x="15.02" y="32.8978" width="4.24489" height="4.24489" rx="2.12244" fill="url(#paint2_linear_1078_4258)"/>
<rect x="21.3877" y="32.8978" width="4.24489" height="4.24489" rx="2.12244" fill="url(#paint3_linear_1078_4258)"/>
<defs>
<linearGradient id="paint0_linear_1078_4258" x1="39.8435" y1="23.8786" x2="15.3332" y2="57.6426" gradientUnits="userSpaceOnUse">
<stop stop-color="#CFD6E4"/>
<stop offset="1" stop-color="white"/>
</linearGradient>
<linearGradient id="paint1_linear_1078_4258" x1="27.9115" y1="35.27" x2="40.6683" y2="47.8619" gradientUnits="userSpaceOnUse">
<stop stop-color="#F0F1F5"/>
<stop offset="1" stop-color="white"/>
</linearGradient>
<linearGradient id="paint2_linear_1078_4258" x1="14.583" y1="35.27" x2="19.923" y2="36.4413" gradientUnits="userSpaceOnUse">
<stop stop-color="#F0F1F5"/>
<stop offset="1" stop-color="white"/>
</linearGradient>
<linearGradient id="paint3_linear_1078_4258" x1="20.9507" y1="35.27" x2="26.2907" y2="36.4413" gradientUnits="userSpaceOnUse">
<stop stop-color="#F0F1F5"/>
<stop offset="1" stop-color="white"/>
</linearGradient>
</defs>
</svg>
