<svg width="64" height="64" viewBox="0 0 64 64" fill="none" xmlns="http://www.w3.org/2000/svg">
<path d="M20.7143 12H36.4728C37.1822 12 37.8686 12.2514 38.4102 12.7095L47.9374 20.7679C48.6113 21.3379 49 22.1758 49 23.0584V48.1667C49 51.7478 48.9591 52 45.2857 52H20.7143C17.0409 52 17 51.7478 17 48.1667V15.8333C17 12.2522 17.0409 12 20.7143 12Z" fill="url(#paint0_linear_1106_3522)"/>
<path fill-rule="evenodd" clip-rule="evenodd" d="M30.0795 27.6675C29.7481 27.6675 29.4795 27.9361 29.4795 28.2674V28.8674H25.2009C24.5382 28.8674 24.001 29.4046 24.001 30.0673V38.4668C24.001 39.1295 24.5382 39.6667 25.2009 39.6667H40.7999C41.4626 39.6667 41.9999 39.1295 41.9999 38.4668V30.0673C41.9999 29.4046 41.4626 28.8674 40.7999 28.8674H36.5225V28.2674C36.5225 27.9361 36.2539 27.6675 35.9226 27.6675H30.0795Z" fill="url(#paint1_linear_1106_3522)"/>
<ellipse cx="33.0007" cy="34.2671" rx="3.32588" ry="3.39979" fill="url(#paint2_linear_1106_3522)"/>
<defs>
<linearGradient id="paint0_linear_1106_3522" x1="38.913" y1="23.7391" x2="4.98746" y2="49.5349" gradientUnits="userSpaceOnUse">
<stop stop-color="#CFD6E4"/>
<stop offset="1" stop-color="white"/>
</linearGradient>
<linearGradient id="paint1_linear_1106_3522" x1="22.1482" y1="34.373" x2="43.5615" y2="41.4185" gradientUnits="userSpaceOnUse">
<stop stop-color="#F0F1F5"/>
<stop offset="1" stop-color="white"/>
</linearGradient>
<linearGradient id="paint2_linear_1106_3522" x1="34.2298" y1="32.8628" x2="28.2609" y2="38.4127" gradientUnits="userSpaceOnUse">
<stop stop-color="#CFD6E4"/>
<stop offset="1" stop-color="white"/>
</linearGradient>
</defs>
</svg>
