<svg width="64" height="64" viewBox="0 0 64 64" fill="none" xmlns="http://www.w3.org/2000/svg">
<path d="M27.7507 42.3403H21.8273C21.0627 42.3403 20.4011 41.8081 20.2374 41.0612L19.5751 37.9954C18.6916 37.6082 17.8538 37.1241 17.0772 36.5519L14.0879 37.5039C13.3588 37.7364 12.5663 37.4296 12.1839 36.7667L9.21571 31.6391C8.8375 30.976 8.9678 30.1395 9.52978 29.6229L11.8487 27.5074C11.7432 26.5491 11.7432 25.5821 11.8487 24.6238L9.52978 22.5132C8.96697 21.9963 8.83662 21.1588 9.21571 20.4953L12.1774 15.3644C12.5598 14.7016 13.3523 14.3948 14.0813 14.6273L17.0707 15.5793C17.4679 15.285 17.8813 15.0133 18.3091 14.7656C18.7197 14.534 19.1423 14.3244 19.5751 14.1375L20.2391 11.0749C20.4019 10.3279 21.0628 9.79499 21.8273 9.79419H27.7507C28.5152 9.79499 29.1761 10.3279 29.3389 11.0749L30.0094 14.1391C30.4663 14.3401 30.9113 14.5672 31.3421 14.8193C31.744 15.0517 32.1324 15.3065 32.5057 15.5825L35.4967 14.6305C36.2252 14.3989 37.0167 14.7057 37.399 15.3677L40.3607 20.4986C40.7389 21.1617 40.6086 21.9982 40.0466 22.5148L37.7277 24.6303C37.8331 25.5886 37.8331 26.5556 37.7277 27.5139L40.0466 29.6294C40.6086 30.146 40.7389 30.9825 40.3607 31.6456L37.399 36.7765C37.0167 37.4386 36.2252 37.7453 35.4967 37.5137L32.5057 36.5617C32.1272 36.8405 31.7339 37.0985 31.3275 37.3347C30.9009 37.5819 30.4608 37.8052 30.0094 38.0035L29.3389 41.0612C29.1754 41.8075 28.5147 42.3396 27.7507 42.3403ZM17.6614 32.9491L18.9958 33.9255C19.2966 34.147 19.6101 34.3508 19.9348 34.5357C20.2402 34.7126 20.5547 34.8734 20.877 35.0174L22.3952 35.683L23.1389 39.0857H26.4423L27.186 35.6813L28.7043 35.0158C29.3671 34.7235 29.9962 34.3601 30.5806 33.932L31.9166 32.9556L35.2379 34.0133L36.8896 31.1525L34.3136 28.8043L34.4959 27.1575C34.5759 26.4372 34.5759 25.7103 34.4959 24.99L34.3136 23.3431L36.8913 20.99L35.2379 18.1276L31.9166 19.1854L30.5806 18.209C29.996 17.7789 29.367 17.4128 28.7043 17.1171L27.186 16.4515L26.4423 13.0488H23.1389L22.392 16.4531L20.877 17.1171C20.5544 17.2587 20.2399 17.4179 19.9348 17.5939C19.6121 17.7783 19.3003 17.9809 19.0007 18.2008L17.6647 19.1772L14.345 18.1195L12.69 20.99L15.266 23.335L15.0838 24.9834C15.0037 25.7037 15.0037 26.4307 15.0838 27.151L15.266 28.7978L12.69 31.146L14.3417 34.0068L17.6614 32.9491Z" fill="url(#paint0_linear_1106_3498)"/>
<path d="M17.6614 32.9491L18.9958 33.9255C19.2966 34.147 19.6101 34.3508 19.9348 34.5357C20.2402 34.7126 20.5547 34.8734 20.877 35.0174L22.3952 35.683L23.1389 39.0857H26.4423L27.186 35.6813L28.7043 35.0158C29.3671 34.7235 29.9962 34.3601 30.5806 33.932L31.9166 32.9556L35.2379 34.0133L36.8896 31.1525L34.3136 28.8043L34.4959 27.1575C34.5759 26.4372 34.5759 25.7103 34.4959 24.99L34.3136 23.3431L36.8913 20.99L35.2379 18.1276L31.9166 19.1854L30.5806 18.209C29.996 17.7789 29.367 17.4128 28.7043 17.1171L27.186 16.4515L26.4423 13.0488H23.1389L22.392 16.4531L20.877 17.1171C20.5544 17.2587 20.2399 17.4179 19.9348 17.5939C19.6121 17.7783 19.3003 17.9809 19.0007 18.2008L17.6647 19.1772L14.345 18.1195L12.69 20.99L15.266 23.335L15.0838 24.9834C15.0037 25.7037 15.0037 26.4307 15.0838 27.151L15.266 28.7978L12.69 31.146L14.3417 34.0068L17.6614 32.9491Z" fill="url(#paint1_linear_1106_3498)"/>
<path d="M46.9405 54.9897H43.4844C43.0382 54.9897 42.6522 54.6793 42.5567 54.2434L42.1703 52.4546C41.6548 52.2287 41.1659 51.9463 40.7128 51.6124L38.9686 52.1679C38.5433 52.3035 38.0808 52.1245 37.8577 51.7377L36.1259 48.7459C35.9052 48.359 35.9812 47.8709 36.3091 47.5695L37.6621 46.3352C37.6006 45.776 37.6006 45.2118 37.6621 44.6527L36.3091 43.4212C35.9807 43.1196 35.9047 42.631 36.1259 42.2438L37.8539 39.2501C38.077 38.8634 38.5395 38.6843 38.9648 38.82L40.709 39.3754C40.9408 39.2037 41.182 39.0452 41.4316 38.9007C41.6712 38.7656 41.9178 38.6432 42.1703 38.5342L42.5577 36.7472C42.6527 36.3114 43.0383 36.0005 43.4844 36H46.9405C47.3866 36.0005 47.7722 36.3114 47.8672 36.7472L48.2584 38.5351C48.525 38.6524 48.7846 38.7849 49.036 38.932C49.2705 39.0676 49.4971 39.2163 49.7149 39.3773L51.4601 38.8219C51.8852 38.6867 52.347 38.8657 52.57 39.252L54.2981 42.2457C54.5188 42.6326 54.4427 43.1207 54.1148 43.4221L52.7618 44.6565C52.8233 45.2156 52.8233 45.7798 52.7618 46.339L54.1148 47.5733C54.4427 47.8747 54.5188 48.3628 54.2981 48.7497L52.57 51.7434C52.347 52.1297 51.8852 52.3087 51.4601 52.1736L49.7149 51.6181C49.4941 51.7808 49.2646 51.9313 49.0275 52.0691C48.7786 52.2133 48.5218 52.3436 48.2584 52.4594L47.8672 54.2434C47.7718 54.6789 47.3863 54.9894 46.9405 54.9897ZM41.0537 49.5103L41.8323 50.0799C42.0078 50.2092 42.1907 50.3281 42.3801 50.436C42.5583 50.5392 42.7419 50.633 42.9299 50.717L43.8158 51.1054L44.2497 53.0908H46.1771L46.611 51.1044L47.4969 50.7161C47.8836 50.5456 48.2507 50.3335 48.5917 50.0837L49.3712 49.514L51.3091 50.1312L52.2728 48.462L50.7698 47.0919L50.8761 46.131C50.9228 45.7107 50.9228 45.2866 50.8761 44.8663L50.7698 43.9054L52.2738 42.5325L51.3091 40.8623L49.3712 41.4795L48.5917 40.9098C48.2506 40.6589 47.8836 40.4453 47.4969 40.2727L46.611 39.8844L46.1771 37.899H44.2497L43.8139 39.8853L42.9299 40.2727C42.7417 40.3553 42.5582 40.4482 42.3801 40.5509C42.1919 40.6585 42.0099 40.7767 41.8351 40.905L41.0556 41.4747L39.1186 40.8576L38.153 42.5325L39.6561 43.9007L39.5497 44.8625C39.503 45.2828 39.503 45.707 39.5497 46.1272L39.6561 47.0881L38.153 48.4582L39.1167 50.1274L41.0537 49.5103Z" fill="url(#paint2_linear_1106_3498)"/>
<path d="M41.0537 49.5103L41.8323 50.0799C42.0078 50.2092 42.1907 50.3281 42.3801 50.436C42.5583 50.5392 42.7419 50.633 42.9299 50.717L43.8158 51.1054L44.2497 53.0908H46.1771L46.611 51.1044L47.4969 50.7161C47.8836 50.5456 48.2507 50.3335 48.5917 50.0837L49.3712 49.514L51.3091 50.1312L52.2728 48.462L50.7698 47.0919L50.8761 46.131C50.9228 45.7107 50.9228 45.2866 50.8761 44.8663L50.7698 43.9054L52.2738 42.5325L51.3091 40.8623L49.3712 41.4795L48.5917 40.9098C48.2506 40.6589 47.8836 40.4453 47.4969 40.2727L46.611 39.8844L46.1771 37.899H44.2497L43.8139 39.8853L42.9299 40.2727C42.7417 40.3553 42.5582 40.4482 42.3801 40.5509C42.1919 40.6585 42.0099 40.7767 41.8351 40.905L41.0556 41.4747L39.1186 40.8576L38.153 42.5325L39.6561 43.9007L39.5497 44.8625C39.503 45.2828 39.503 45.707 39.5497 46.1272L39.6561 47.0881L38.153 48.4582L39.1167 50.1274L41.0537 49.5103Z" fill="url(#paint3_linear_1106_3498)"/>
<path fill-rule="evenodd" clip-rule="evenodd" d="M24.7902 25.848C26.2433 25.848 27.4213 24.67 27.4213 23.217C27.4213 21.7639 26.2433 20.5859 24.7902 20.5859C23.3371 20.5859 22.1592 21.7639 22.1592 23.217C22.1592 24.67 23.3371 25.848 24.7902 25.848ZM20.8429 27.1634L19.5273 31.1099H30.0515L28.7359 27.1634H24.7894H20.8429Z" fill="url(#paint4_linear_1106_3498)"/>
<path fill-rule="evenodd" clip-rule="evenodd" d="M45.2133 45.3669C46.0611 45.3669 46.7484 44.6796 46.7484 43.8318C46.7484 42.9839 46.0611 42.2966 45.2133 42.2966C44.3655 42.2966 43.6782 42.9839 43.6782 43.8318C43.6782 44.6796 44.3655 45.3669 45.2133 45.3669ZM42.9101 46.1345L42.1426 48.4372H48.2831L47.5155 46.1345H45.2128H42.9101Z" fill="url(#paint5_linear_1106_3498)"/>
<defs>
<linearGradient id="paint0_linear_1106_3498" x1="30.6225" y1="19.3458" x2="2.07046" y2="45.6741" gradientUnits="userSpaceOnUse">
<stop stop-color="#CFD6E4"/>
<stop offset="1" stop-color="white"/>
</linearGradient>
<linearGradient id="paint1_linear_1106_3498" x1="30.6225" y1="19.3458" x2="2.07046" y2="45.6741" gradientUnits="userSpaceOnUse">
<stop stop-color="#CFD6E4"/>
<stop offset="1" stop-color="white"/>
</linearGradient>
<linearGradient id="paint2_linear_1106_3498" x1="48.6162" y1="41.5731" x2="31.9568" y2="56.935" gradientUnits="userSpaceOnUse">
<stop stop-color="#CFD6E4"/>
<stop offset="1" stop-color="white"/>
</linearGradient>
<linearGradient id="paint3_linear_1106_3498" x1="48.6162" y1="41.5731" x2="31.9568" y2="56.935" gradientUnits="userSpaceOnUse">
<stop stop-color="#CFD6E4"/>
<stop offset="1" stop-color="white"/>
</linearGradient>
<linearGradient id="paint4_linear_1106_3498" x1="18.444" y1="26.467" x2="31.683" y2="29.371" gradientUnits="userSpaceOnUse">
<stop stop-color="#F0F1F5"/>
<stop offset="1" stop-color="white"/>
</linearGradient>
<linearGradient id="paint5_linear_1106_3498" x1="41.5105" y1="45.7281" x2="49.2351" y2="47.4225" gradientUnits="userSpaceOnUse">
<stop stop-color="#F0F1F5"/>
<stop offset="1" stop-color="white"/>
</linearGradient>
</defs>
</svg>
