<svg width="64" height="64" viewBox="0 0 64 64" fill="none" xmlns="http://www.w3.org/2000/svg">
<path fill-rule="evenodd" clip-rule="evenodd" d="M33.0001 15C31.8955 15 31.0001 15.8954 31.0001 17V21.4735C30.9998 21.4735 30.9995 21.4735 30.9991 21.4735H17.4267H17.3991L17.3715 21.4745C16.0287 21.5231 14.0845 22.0167 12.4437 23.3573C10.7403 24.749 9.47266 26.9691 9.47266 30.2033C9.47266 33.7741 10.0506 36.603 11.8934 38.4769C13.7451 40.3599 16.5069 40.9082 19.8629 40.9082C22.9208 40.9082 25.0291 41.6167 26.4 43.0297C27.7827 44.4549 28.7034 46.8918 28.7034 51C28.7034 51.843 29.3869 52.5265 30.2299 52.5265C31.0729 52.5265 31.7564 51.843 31.7564 51C31.7564 46.5107 30.7592 43.1385 28.5912 40.9039C26.4115 38.6572 23.3362 37.8553 19.8629 37.8553C16.6877 37.8553 15.0177 37.2998 14.0702 36.3364C13.1139 35.3638 12.5256 33.6035 12.5256 30.2033C12.5256 27.8607 13.4005 26.5179 14.3753 25.7215C15.4018 24.8828 16.6557 24.5611 17.4567 24.5265H30.9991C30.9995 24.5265 30.9998 24.5265 31.0001 24.5265V29C31.0001 30.1046 31.8955 31 33.0001 31H51.0001C52.1047 31 53.0001 30.1046 53.0001 29V17C53.0001 15.8954 52.1047 15 51.0001 15H33.0001Z" fill="url(#paint0_linear_1116_5683)"/>
<path d="M42.3 18L39 24.1538H41.7V28L45 21.8462H42.3V18Z" fill="url(#paint1_linear_1116_5683)"/>
<defs>
<linearGradient id="paint0_linear_1116_5683" x1="39.2795" y1="26.0132" x2="6.4064" y2="62.254" gradientUnits="userSpaceOnUse">
<stop stop-color="#CFD6E4"/>
<stop offset="1" stop-color="white"/>
</linearGradient>
<linearGradient id="paint1_linear_1116_5683" x1="38.3824" y1="23.5882" x2="46.1587" y2="24.6117" gradientUnits="userSpaceOnUse">
<stop stop-color="#F0F1F5"/>
<stop offset="1" stop-color="white"/>
</linearGradient>
</defs>
</svg>
