<svg width="64" height="64" viewBox="0 0 64 64" fill="none" xmlns="http://www.w3.org/2000/svg">
<path fill-rule="evenodd" clip-rule="evenodd" d="M9.14282 14.9399C9.14282 14.4035 9.57761 13.9688 10.1139 13.9688H53.8861C54.4225 13.9688 54.8573 14.4035 54.8573 14.9399C54.8573 15.4762 54.4225 15.911 53.8861 15.911H51.9993V38.7303C51.9993 39.7822 51.1465 40.635 50.0945 40.635H33.9656L42.2917 47.2959C42.8218 47.72 42.9078 48.4936 42.4837 49.0237C42.0596 49.5538 41.286 49.6398 40.7559 49.2157L33.229 43.1941V48.2558C33.229 48.9347 32.6786 49.485 31.9998 49.485C31.3209 49.485 30.7705 48.9347 30.7705 48.2558V43.1941L23.2436 49.2157C22.7135 49.6398 21.9399 49.5538 21.5158 49.0237C21.0917 48.4936 21.1777 47.72 21.7078 47.2959L30.0339 40.635H13.9039C12.8519 40.635 11.9991 39.7822 11.9991 38.7303V15.911H10.1139C9.57761 15.911 9.14282 15.4762 9.14282 14.9399Z" fill="url(#paint0_linear_1806_29261)"/>
<path d="M14.8577 17.7793H49.1435V36.827C49.1435 37.353 48.7171 37.7794 48.1911 37.7794H15.81C15.2841 37.7794 14.8577 37.353 14.8577 36.827V17.7793Z" fill="url(#paint1_linear_1806_29261)"/>
<defs>
<linearGradient id="paint0_linear_1806_29261" x1="40.4473" y1="24.392" x2="9.81169" y2="61.8706" gradientUnits="userSpaceOnUse">
<stop stop-color="#CFD6E4"/>
<stop offset="1" stop-color="white"/>
</linearGradient>
<linearGradient id="paint1_linear_1806_29261" x1="11.3282" y1="28.9558" x2="50.9339" y2="43.8488" gradientUnits="userSpaceOnUse">
<stop stop-color="#F0F1F5"/>
<stop offset="1" stop-color="white"/>
</linearGradient>
</defs>
</svg>
