<svg width="64" height="64" viewBox="0 0 64 64" fill="none" xmlns="http://www.w3.org/2000/svg">
<path fill-rule="evenodd" clip-rule="evenodd" d="M34.358 14.2702C34.358 13.0164 35.3744 12 36.6282 12H43.8788C45.1327 12 46.1491 13.0164 46.1491 14.2702V28.5955C46.1491 29.8493 45.1327 30.8657 43.8788 30.8657H36.6282C35.3744 30.8657 34.358 29.8493 34.358 28.5955V24.3714C34.2985 24.3775 34.238 24.3806 34.1769 24.3806H23.1584V32.3884C24.5726 32.9616 25.6456 34.2008 25.9883 35.717H48.5072C49.484 35.717 50.2759 36.5089 50.2759 37.4857C50.2759 38.4625 49.484 39.2543 48.5072 39.2543H25.3923C24.8681 40.0945 24.0868 40.7578 23.1584 41.134V47.9627H48.5072C49.484 47.9627 50.2759 48.7545 50.2759 49.7313C50.2759 50.7081 49.484 51.5 48.5072 51.5H21.3898H15.4923C14.5155 51.5 13.7236 50.7081 13.7236 49.7313C13.7236 48.7545 14.5155 47.9627 15.4923 47.9627H19.6211V41.1356C17.8917 40.4364 16.6715 38.7413 16.6715 36.7612C16.6715 34.7812 17.8917 33.0861 19.6211 32.3869V23.791C19.6211 22.163 20.9409 20.8433 22.5689 20.8433H34.1769C34.238 20.8433 34.2985 20.8464 34.358 20.8524V14.2702Z" fill="url(#paint0_linear_1181_4466)"/>
<path fill-rule="evenodd" clip-rule="evenodd" d="M42.6119 16H37.8955V27.791H42.6119V16ZM21.3881 39.582C22.6905 39.582 23.7463 38.5262 23.7463 37.2238C23.7463 35.9214 22.6905 34.8656 21.3881 34.8656C20.0857 34.8656 19.0299 35.9214 19.0299 37.2238C19.0299 38.5262 20.0857 39.582 21.3881 39.582Z" fill="url(#paint1_linear_1181_4466)"/>
<defs>
<linearGradient id="paint0_linear_1181_4466" x1="38.754" y1="23.5924" x2="4.27189" y2="53.9203" gradientUnits="userSpaceOnUse">
<stop stop-color="#CFD6E4"/>
<stop offset="1" stop-color="white"/>
</linearGradient>
<linearGradient id="paint1_linear_1181_4466" x1="16.6022" y1="29.1782" x2="46.2679" y2="35.6854" gradientUnits="userSpaceOnUse">
<stop stop-color="#F0F1F5"/>
<stop offset="1" stop-color="white"/>
</linearGradient>
</defs>
</svg>
