<svg width="64" height="64" viewBox="0 0 64 64" fill="none" xmlns="http://www.w3.org/2000/svg">
<path fill-rule="evenodd" clip-rule="evenodd" d="M53.3643 24.4648H56.2642C57.3809 24.4648 58.2862 25.3701 58.2862 26.4868V36.0725C58.2862 37.1892 57.3809 38.0945 56.2642 38.0945H54.7756C54.5815 38.43 54.3712 38.755 54.1457 39.0684H55.3648C55.9025 39.0684 56.3384 39.5042 56.3384 40.0419C56.3384 40.5796 55.9025 41.0154 55.3648 41.0154H52.3829C50.3236 42.8327 47.6186 43.9354 44.6562 43.9354C41.6937 43.9354 38.9888 42.8327 36.9295 41.0154H8.63468C8.097 41.0154 7.66113 40.5796 7.66113 40.0419C7.66113 39.5042 8.097 39.0684 8.63468 39.0684H35.1667C34.9412 38.755 34.7309 38.43 34.5368 38.0945H7.7367C6.61999 38.0945 5.71472 37.1892 5.71472 36.0725V26.4868C5.71472 25.3701 6.61999 24.4648 7.7367 24.4648H35.9481C38.0872 22.0746 41.196 20.5703 44.6562 20.5703C48.1163 20.5703 51.2251 22.0746 53.3643 24.4648Z" fill="url(#paint0_linear_1806_29081)"/>
<circle cx="45.1431" cy="32.2534" r="6.06593" fill="url(#paint1_linear_1806_29081)"/>
<defs>
<linearGradient id="paint0_linear_1806_29081" x1="41.7147" y1="27.4275" x2="25.9326" y2="61.1779" gradientUnits="userSpaceOnUse">
<stop stop-color="#CFD6E4"/>
<stop offset="1" stop-color="white"/>
</linearGradient>
<linearGradient id="paint1_linear_1806_29081" x1="37.8283" y1="32.9671" x2="53.0898" y2="36.3147" gradientUnits="userSpaceOnUse">
<stop stop-color="#F0F1F5"/>
<stop offset="1" stop-color="white"/>
</linearGradient>
</defs>
</svg>
