<svg width="64" height="64" viewBox="0 0 64 64" fill="none" xmlns="http://www.w3.org/2000/svg">
<path fill-rule="evenodd" clip-rule="evenodd" d="M8 23.1364C8 21.9314 8.97683 20.9546 10.1818 20.9546H53.8182C55.0232 20.9546 56 21.9314 56 23.1364V31.8637C56 33.0687 55.0232 34.0455 53.8182 34.0455H33.0913V39.6863C34.0211 40.015 34.7581 40.752 35.0868 41.6819H48.364C48.9665 41.6819 49.4549 42.1703 49.4549 42.7728C49.4549 43.3753 48.9665 43.8637 48.364 43.8637H35.0868C34.6375 45.1348 33.4252 46.0455 32.0003 46.0455C30.5753 46.0455 29.3631 45.1348 28.9138 43.8637H15.6367C15.0342 43.8637 14.5458 43.3753 14.5458 42.7728C14.5458 42.1703 15.0342 41.6819 15.6367 41.6819H28.9137C29.2424 40.7519 29.9795 40.0149 30.9094 39.6862V34.0455H10.1818C8.97683 34.0455 8 33.0687 8 31.8637V23.1364Z" fill="url(#paint0_linear_1120_3850)"/>
<rect x="32" y="25.3181" width="19.6364" height="4.36364" rx="2.18182" fill="url(#paint1_linear_1120_3850)"/>
<circle cx="13.4548" cy="27.4999" r="2.18182" fill="url(#paint2_linear_1120_3850)"/>
<circle cx="21.091" cy="27.4999" r="2.18182" fill="url(#paint3_linear_1120_3850)"/>
<defs>
<linearGradient id="paint0_linear_1120_3850" x1="40.8696" y1="28.3182" x2="22.2192" y2="62.2294" gradientUnits="userSpaceOnUse">
<stop stop-color="#CFD6E4"/>
<stop offset="1" stop-color="white"/>
</linearGradient>
<linearGradient id="paint1_linear_1120_3850" x1="29.9786" y1="27.7566" x2="43.0922" y2="40.7008" gradientUnits="userSpaceOnUse">
<stop stop-color="#F0F1F5"/>
<stop offset="1" stop-color="white"/>
</linearGradient>
<linearGradient id="paint2_linear_1120_3850" x1="10.8238" y1="27.7566" x2="16.3131" y2="28.9607" gradientUnits="userSpaceOnUse">
<stop stop-color="#F0F1F5"/>
<stop offset="1" stop-color="white"/>
</linearGradient>
<linearGradient id="paint3_linear_1120_3850" x1="18.46" y1="27.7566" x2="23.9493" y2="28.9607" gradientUnits="userSpaceOnUse">
<stop stop-color="#F0F1F5"/>
<stop offset="1" stop-color="white"/>
</linearGradient>
</defs>
</svg>
