<svg width="64" height="64" viewBox="0 0 64 64" fill="none" xmlns="http://www.w3.org/2000/svg">
<path fill-rule="evenodd" clip-rule="evenodd" d="M44.7349 25.4693V16.9795C44.7349 15.8073 45.6851 14.8571 46.8573 14.8571C48.0295 14.8571 48.9798 15.8073 48.9798 16.9795V25.4693H44.7349ZM10.7754 27.5917C10.7754 26.4196 11.7256 25.4693 12.8978 25.4693H51.1016C52.2738 25.4693 53.224 26.4196 53.224 27.5917V42.4488C53.224 43.621 52.2738 44.5713 51.1016 44.5713H12.8978C11.7256 44.5713 10.7754 43.621 10.7754 42.4488V27.5917ZM15.02 16.9795L15.02 25.4693H19.2649V16.9795C19.2649 15.8073 18.3147 14.8571 17.1425 14.8571C15.9703 14.8571 15.02 15.8073 15.02 16.9795Z" fill="url(#paint0_linear_1106_3569)"/>
<rect x="29.8779" y="32.8978" width="19.102" height="4.24489" rx="2.12244" fill="url(#paint1_linear_1106_3569)"/>
<rect x="15.02" y="32.8978" width="4.24489" height="4.24489" rx="2.12244" fill="url(#paint2_linear_1106_3569)"/>
<rect x="21.3877" y="32.8978" width="4.24489" height="4.24489" rx="2.12244" fill="url(#paint3_linear_1106_3569)"/>
<defs>
<linearGradient id="paint0_linear_1106_3569" x1="39.8435" y1="23.5775" x2="14.8674" y2="57.4897" gradientUnits="userSpaceOnUse">
<stop stop-color="#CFD6E4"/>
<stop offset="1" stop-color="white"/>
</linearGradient>
<linearGradient id="paint1_linear_1106_3569" x1="27.9115" y1="35.27" x2="40.6683" y2="47.8619" gradientUnits="userSpaceOnUse">
<stop stop-color="#F0F1F5"/>
<stop offset="1" stop-color="white"/>
</linearGradient>
<linearGradient id="paint2_linear_1106_3569" x1="14.583" y1="35.27" x2="19.923" y2="36.4413" gradientUnits="userSpaceOnUse">
<stop stop-color="#F0F1F5"/>
<stop offset="1" stop-color="white"/>
</linearGradient>
<linearGradient id="paint3_linear_1106_3569" x1="20.9507" y1="35.27" x2="26.2907" y2="36.4413" gradientUnits="userSpaceOnUse">
<stop stop-color="#F0F1F5"/>
<stop offset="1" stop-color="white"/>
</linearGradient>
</defs>
</svg>
