<svg width="64" height="64" viewBox="0 0 64 64" fill="none" xmlns="http://www.w3.org/2000/svg">
<rect x="17" y="9.5" width="30" height="45" rx="2" fill="url(#paint0_linear_1106_3606)"/>
<path d="M31.4814 31.9553H28.7677C28.4174 31.9553 28.1143 31.7115 28.0393 31.3693L27.7359 29.9648C27.3311 29.7874 26.9473 29.5656 26.5915 29.3035L25.222 29.7396C24.888 29.8461 24.525 29.7056 24.3498 29.4019L22.9899 27.0528C22.8167 26.749 22.8764 26.3658 23.1338 26.1291L24.1962 25.1599C24.1479 24.7209 24.1479 24.2779 24.1962 23.8388L23.1338 22.8719C22.876 22.6351 22.8163 22.2514 22.9899 21.9475L24.3468 19.5968C24.522 19.2932 24.885 19.1526 25.219 19.2591L26.5886 19.6952C26.7705 19.5604 26.9599 19.436 27.1559 19.3225C27.344 19.2164 27.5376 19.1203 27.7359 19.0347L28.0401 17.6316C28.1147 17.2894 28.4175 17.0453 28.7677 17.0449H31.4814C31.8317 17.0453 32.1344 17.2894 32.209 17.6316L32.5162 19.0355C32.7255 19.1275 32.9294 19.2316 33.1268 19.3471C33.3109 19.4536 33.4888 19.5703 33.6598 19.6967L35.0301 19.2606C35.3638 19.1545 35.7265 19.295 35.9016 19.5983L37.2584 21.9489C37.4317 22.2527 37.372 22.636 37.1145 22.8726L36.0522 23.8418C36.1005 24.2809 36.1005 24.7239 36.0522 25.1629L37.1145 26.1321C37.372 26.3688 37.4317 26.752 37.2584 27.0558L35.9016 29.4064C35.7265 29.7097 35.3638 29.8502 35.0301 29.7441L33.6598 29.308C33.4864 29.4357 33.3062 29.5539 33.1201 29.6621C32.9246 29.7753 32.723 29.8776 32.5162 29.9685L32.209 31.3693C32.1341 31.7113 31.8314 31.955 31.4814 31.9553ZM26.8592 27.6529L27.4705 28.1002C27.6083 28.2017 27.752 28.2951 27.9007 28.3798C28.0406 28.4608 28.1847 28.5345 28.3323 28.6005L29.0279 28.9054L29.3686 30.4643H30.882L31.2227 28.9046L31.9183 28.5997C32.2219 28.4658 32.5101 28.2993 32.7779 28.1032L33.3899 27.6559L34.9115 28.1405L35.6682 26.8299L34.4881 25.7541L34.5716 24.9996C34.6083 24.6696 34.6083 24.3366 34.5716 24.0066L34.4881 23.2521L35.669 22.1741L34.9115 20.8627L33.3899 21.3473L32.7779 20.9C32.5101 20.703 32.2219 20.5353 31.9183 20.3998L31.2227 20.0948L30.882 18.536H29.3686L29.0264 20.0956L28.3323 20.3998C28.1846 20.4647 28.0405 20.5376 27.9007 20.6182C27.7529 20.7027 27.61 20.7955 27.4727 20.8963L26.8607 21.3436L25.3398 20.859L24.5816 22.1741L25.7618 23.2484L25.6783 24.0036C25.6416 24.3336 25.6416 24.6666 25.6783 24.9966L25.7618 25.7511L24.5816 26.8269L25.3383 28.1375L26.8592 27.6529Z" fill="url(#paint1_linear_1106_3606)"/>
<path d="M26.8592 27.6529L27.4705 28.1002C27.6083 28.2017 27.752 28.2951 27.9007 28.3798C28.0406 28.4608 28.1847 28.5345 28.3323 28.6005L29.0279 28.9054L29.3686 30.4643H30.882L31.2227 28.9046L31.9183 28.5997C32.2219 28.4658 32.5101 28.2993 32.7779 28.1032L33.3899 27.6559L34.9115 28.1405L35.6682 26.8299L34.4881 25.7541L34.5716 24.9996C34.6083 24.6696 34.6083 24.3366 34.5716 24.0066L34.4881 23.2521L35.669 22.1741L34.9115 20.8627L33.3899 21.3473L32.7779 20.9C32.5101 20.703 32.2219 20.5353 31.9183 20.3998L31.2227 20.0948L30.882 18.536H29.3686L29.0264 20.0956L28.3323 20.3998C28.1846 20.4647 28.0405 20.5376 27.9007 20.6182C27.7529 20.7027 27.61 20.7955 27.4727 20.8963L26.8607 21.3436L25.3398 20.859L24.5816 22.1741L25.7618 23.2484L25.6783 24.0036C25.6416 24.3336 25.6416 24.6666 25.6783 24.9966L25.7618 25.7511L24.5816 26.8269L25.3383 28.1375L26.8592 27.6529Z" fill="url(#paint2_linear_1106_3606)"/>
<path d="M27.0801 24.5001C27.0801 26.1819 28.4434 27.5452 30.1252 27.5452C31.8061 27.5431 33.1682 26.181 33.1703 24.5001C33.1703 22.8183 31.807 21.455 30.1252 21.455C28.4434 21.455 27.0801 22.8183 27.0801 24.5001Z" fill="url(#paint3_linear_1106_3606)"/>
<path d="M38.5301 44.4703H36.721C36.4874 44.4703 36.2854 44.3078 36.2354 44.0796L36.0331 43.1433C35.7632 43.025 35.5074 42.8772 35.2702 42.7024L34.3572 42.9932C34.1345 43.0642 33.8924 42.9705 33.7757 42.768L32.8691 41.2019C32.7536 40.9994 32.7934 40.7439 32.965 40.5861L33.6733 39.94C33.6411 39.6473 33.6411 39.352 33.6733 39.0593L32.965 38.4147C32.7931 38.2568 32.7533 38.001 32.8691 37.7984L33.7737 36.2313C33.8905 36.0289 34.1325 35.9352 34.3552 36.0062L35.2682 36.2969C35.3895 36.207 35.5158 36.1241 35.6464 36.0484C35.7718 35.9777 35.9009 35.9136 36.0331 35.8566L36.2359 34.9212C36.2856 34.693 36.4875 34.5303 36.721 34.53H38.5301C38.7636 34.5303 38.9654 34.693 39.0152 34.9212L39.2199 35.8571C39.3595 35.9184 39.4954 35.9878 39.627 36.0648C39.7497 36.1358 39.8684 36.2136 39.9824 36.2979L40.8959 36.0072C41.1184 35.9364 41.3601 36.0301 41.4769 36.2323L42.3814 37.7994C42.4969 38.0019 42.4572 38.2574 42.2855 38.4152L41.5773 39.0613C41.6095 39.354 41.6095 39.6493 41.5773 39.942L42.2855 40.5881C42.4572 40.7459 42.4969 41.0014 42.3814 41.2039L41.4769 42.771C41.3601 42.9732 41.1184 43.0669 40.8959 42.9962L39.9824 42.7054C39.8668 42.7905 39.7466 42.8693 39.6225 42.9415C39.4922 43.017 39.3578 43.0852 39.2199 43.1458L39.0152 44.0796C38.9652 44.3076 38.7634 44.4701 38.5301 44.4703ZM35.4486 41.602L35.8562 41.9002C35.948 41.9679 36.0438 42.0301 36.1429 42.0866C36.2362 42.1406 36.3323 42.1897 36.4307 42.2337L36.8944 42.437L37.1215 43.4763H38.1305L38.3576 42.4365L38.8213 42.2332C39.0238 42.144 39.2159 42.033 39.3944 41.9022L39.8024 41.604L40.8168 41.9271L41.3213 41.0533L40.5345 40.3361L40.5902 39.8332C40.6147 39.6132 40.6147 39.3911 40.5902 39.1711L40.5345 38.6682L41.3218 37.9495L40.8168 37.0752L39.8024 37.3983L39.3944 37.1001C39.2159 36.9687 39.0237 36.8569 38.8213 36.7666L38.3576 36.5633L38.1305 35.5241H37.1215L36.8934 36.5638L36.4307 36.7666C36.3322 36.8099 36.2361 36.8585 36.1429 36.9122C36.0444 36.9685 35.9491 37.0304 35.8576 37.0976L35.4496 37.3958L34.4357 37.0727L33.9302 37.9495L34.717 38.6657L34.6613 39.1691C34.6369 39.3891 34.6369 39.6112 34.6613 39.8312L34.717 40.3341L33.9302 41.0513L34.4347 41.9251L35.4486 41.602Z" fill="url(#paint4_linear_1106_3606)"/>
<path d="M35.4486 41.602L35.8562 41.9002C35.948 41.9679 36.0438 42.0301 36.1429 42.0866C36.2362 42.1406 36.3323 42.1897 36.4307 42.2337L36.8944 42.437L37.1215 43.4763H38.1305L38.3576 42.4365L38.8213 42.2332C39.0238 42.144 39.2159 42.033 39.3944 41.9022L39.8024 41.604L40.8168 41.9271L41.3213 41.0533L40.5345 40.3361L40.5902 39.8332C40.6147 39.6132 40.6147 39.3911 40.5902 39.1711L40.5345 38.6682L41.3218 37.9495L40.8168 37.0752L39.8024 37.3983L39.3944 37.1001C39.2159 36.9687 39.0237 36.8569 38.8213 36.7666L38.3576 36.5633L38.1305 35.5241H37.1215L36.8934 36.5638L36.4307 36.7666C36.3322 36.8099 36.2361 36.8585 36.1429 36.9122C36.0444 36.9685 35.9491 37.0304 35.8576 37.0976L35.4496 37.3958L34.4357 37.0727L33.9302 37.9495L34.717 38.6657L34.6613 39.1691C34.6369 39.3891 34.6369 39.6112 34.6613 39.8312L34.717 40.3341L33.9302 41.0513L34.4347 41.9251L35.4486 41.602Z" fill="url(#paint5_linear_1106_3606)"/>
<path d="M35.5952 39.4999C35.5952 40.6211 36.5041 41.53 37.6253 41.53C38.7459 41.5286 39.654 40.6205 39.6554 39.4999C39.6554 38.3787 38.7465 37.4698 37.6253 37.4698C36.5041 37.4698 35.5952 38.3787 35.5952 39.4999Z" fill="url(#paint6_linear_1106_3606)"/>
<defs>
<linearGradient id="paint0_linear_1106_3606" x1="37.5435" y1="22.7065" x2="1.7292" y2="45.3998" gradientUnits="userSpaceOnUse">
<stop stop-color="#CFD6E4"/>
<stop offset="1" stop-color="white"/>
</linearGradient>
<linearGradient id="paint1_linear_1106_3606" x1="21.402" y1="25.3772" x2="39.6489" y2="29.2603" gradientUnits="userSpaceOnUse">
<stop stop-color="#F0F1F5"/>
<stop offset="1" stop-color="white"/>
</linearGradient>
<linearGradient id="paint2_linear_1106_3606" x1="21.402" y1="25.3772" x2="39.6489" y2="29.2603" gradientUnits="userSpaceOnUse">
<stop stop-color="#F0F1F5"/>
<stop offset="1" stop-color="white"/>
</linearGradient>
<linearGradient id="paint3_linear_1106_3606" x1="31.2506" y1="23.2423" x2="25.897" y2="28.3306" gradientUnits="userSpaceOnUse">
<stop stop-color="#CFD6E4"/>
<stop offset="1" stop-color="white"/>
</linearGradient>
<linearGradient id="paint4_linear_1106_3606" x1="31.8105" y1="40.0849" x2="43.975" y2="42.6736" gradientUnits="userSpaceOnUse">
<stop stop-color="#F0F1F5"/>
<stop offset="1" stop-color="white"/>
</linearGradient>
<linearGradient id="paint5_linear_1106_3606" x1="31.8105" y1="40.0849" x2="43.975" y2="42.6736" gradientUnits="userSpaceOnUse">
<stop stop-color="#F0F1F5"/>
<stop offset="1" stop-color="white"/>
</linearGradient>
<linearGradient id="paint6_linear_1106_3606" x1="38.3756" y1="38.6614" x2="34.8065" y2="42.0536" gradientUnits="userSpaceOnUse">
<stop stop-color="#CFD6E4"/>
<stop offset="1" stop-color="white"/>
</linearGradient>
</defs>
</svg>
