<svg width="18" height="18" viewBox="0 0 18 18" xmlns="http://www.w3.org/2000/svg">
<path d="M7.94469 10.0577C8.25219 10.3502 8.25219 10.8302 7.94469 11.1227C7.65219 11.4152 7.17219 11.4152 6.87969 11.1227C5.41719 9.66023 5.41719 7.28273 6.87969 5.82023L9.53469 3.16523C10.9972 1.70273 13.3747 1.70273 14.8372 3.16523C16.2997 4.62773 16.2997 7.00523 14.8372 8.46773L13.7197 9.58523C13.7272 8.97023 13.6297 8.35523 13.4197 7.77023L13.7722 7.41023C14.6572 6.53273 14.6572 5.10773 13.7722 4.23023C12.8947 3.34523 11.4697 3.34523 10.5922 4.23023L7.94469 6.87773C7.05969 7.75523 7.05969 9.18023 7.94469 10.0577ZM10.0597 6.87773C10.3522 6.58523 10.8322 6.58523 11.1247 6.87773C12.5872 8.34023 12.5872 10.7177 11.1247 12.1802L8.46969 14.8352C7.00719 16.2977 4.62969 16.2977 3.16719 14.8352C1.70469 13.3727 1.70469 10.9952 3.16719 9.53273L4.28469 8.41523C4.27719 9.03023 4.37469 9.64523 4.58469 10.2377L4.23219 10.5902C3.34719 11.4677 3.34719 12.8927 4.23219 13.7702C5.10969 14.6552 6.53469 14.6552 7.41219 13.7702L10.0597 11.1227C10.9447 10.2452 10.9447 8.82023 10.0597 7.94273C9.75219 7.65023 9.75219 7.17023 10.0597 6.87773Z"/>
</svg>
