<svg width="56" height="56" viewBox="0 0 56 56" fill="none" xmlns="http://www.w3.org/2000/svg">
<path fill-rule="evenodd" clip-rule="evenodd" d="M6.78756 9C5.70742 9 4.83179 9.87563 4.83179 10.9558V41.7966C4.83179 42.8768 5.70742 43.7524 6.78756 43.7524H16.9564V47.4334H39.0452V43.7524H49.2125C50.2927 43.7524 51.1683 42.8768 51.1683 41.7966V10.9558C51.1683 9.87563 50.2927 9 49.2125 9H6.78756Z" fill="url(#paint0_linear_2725_50595)"/>
<rect x="7.99121" y="12.1602" width="40.0179" height="28.4338" rx="0.977888" fill="url(#paint1_linear_2725_50595)"/>
<path fill-rule="evenodd" clip-rule="evenodd" d="M11.1504 17.4261C11.1504 16.8445 11.6219 16.373 12.2035 16.373H14.3097C14.8913 16.373 15.3628 16.8445 15.3628 17.4261V19.5324C15.3628 20.114 14.8913 20.5855 14.3097 20.5855H12.2035C11.6219 20.5855 11.1504 20.114 11.1504 19.5324V17.4261ZM17.469 18.4789C17.469 17.8973 17.9405 17.4258 18.5221 17.4258H41.6903C42.272 17.4258 42.7434 17.8973 42.7434 18.4789C42.7434 19.0605 42.272 19.532 41.6903 19.532H18.5221C17.9405 19.532 17.469 19.0605 17.469 18.4789ZM18.5221 23.7441C17.9405 23.7441 17.469 24.2156 17.469 24.7972C17.469 25.3789 17.9405 25.8503 18.5221 25.8503H41.6903C42.272 25.8503 42.7434 25.3789 42.7434 24.7972C42.7434 24.2156 42.272 23.7441 41.6903 23.7441H18.5221ZM11.1504 23.7445C11.1504 23.1629 11.6219 22.6914 12.2035 22.6914H14.3097C14.8913 22.6914 15.3628 23.1629 15.3628 23.7445V25.8507C15.3628 26.4323 14.8913 26.9038 14.3097 26.9038H12.2035C11.6219 26.9038 11.1504 26.4323 11.1504 25.8507V23.7445ZM38.531 26.9043L39.4337 34.4635L40.8827 32.8453L43.0206 36.3822L44.7071 35.4575L42.593 31.9207L44.8497 31.4814L38.531 26.9043Z" fill="url(#paint2_linear_2725_50595)"/>
<defs>
<linearGradient id="paint0_linear_2725_50595" x1="36.5043" y1="18.3342" x2="10.4371" y2="54.7695" gradientUnits="userSpaceOnUse">
<stop stop-color="#CFD6E4"/>
<stop offset="1" stop-color="white"/>
</linearGradient>
<linearGradient id="paint1_linear_2725_50595" x1="3.87172" y1="28.0496" x2="52.0442" y2="42.9213" gradientUnits="userSpaceOnUse">
<stop stop-color="#F0F1F5"/>
<stop offset="1" stop-color="white"/>
</linearGradient>
<linearGradient id="paint2_linear_2725_50595" x1="34.1849" y1="21.2326" x2="22.5494" y2="43.9517" gradientUnits="userSpaceOnUse">
<stop stop-color="#CFD6E4"/>
<stop offset="1" stop-color="white"/>
</linearGradient>
</defs>
</svg>
