<svg width="56" height="56" viewBox="0 0 56 56" fill="none" xmlns="http://www.w3.org/2000/svg">
<rect x="3" y="14.457" width="50" height="27.0833" rx="2.08333" fill="url(#paint0_linear_2725_50688)"/>
<path d="M27.8127 31.8161V28.4063C26.7494 28.1024 25.9681 27.644 25.469 27.0309C24.9753 26.4124 24.7284 25.6637 24.7284 24.7848C24.7284 23.8951 25.0078 23.1491 25.5667 22.5469C26.1309 21.9392 26.8796 21.5893 27.8127 21.4971V20.6914H28.9928V21.4971C29.8554 21.6002 30.5417 21.8958 31.0517 22.3841C31.5617 22.867 31.8872 23.5153 32.0282 24.3291L29.9693 24.5977C29.8445 23.9575 29.519 23.5234 28.9928 23.2956V26.4775C30.2948 26.8302 31.1819 27.2886 31.6539 27.8529C32.1259 28.4117 32.3619 29.1305 32.3619 30.0094C32.3619 30.9914 32.0635 31.8188 31.4667 32.4915C30.8754 33.1643 30.0507 33.5766 28.9928 33.7285V35.2503H27.8127V33.7692C26.8742 33.6553 26.1119 33.3053 25.526 32.7194C24.94 32.1335 24.5657 31.3061 24.4029 30.2373L26.5269 30.0094C26.6137 30.4435 26.7765 30.8178 27.0152 31.1325C27.2539 31.4472 27.5198 31.675 27.8127 31.8161ZM27.8127 23.2712C27.4926 23.3797 27.2377 23.5641 27.0478 23.8245C26.8579 24.085 26.7629 24.3725 26.7629 24.6872C26.7629 24.9747 26.8497 25.2433 27.0234 25.4928C27.197 25.737 27.4601 25.935 27.8127 26.0869V23.2712ZM28.9928 31.93C29.3997 31.8541 29.7306 31.6669 29.9856 31.3685C30.2406 31.0647 30.3681 30.7093 30.3681 30.3024C30.3681 29.9389 30.2596 29.627 30.0426 29.3665C29.831 29.1007 29.481 28.8972 28.9928 28.7562V31.93Z" fill="url(#paint1_linear_2725_50688)"/>
<defs>
<linearGradient id="paint0_linear_2725_50688" x1="37.2391" y1="22.4054" x2="16.7298" y2="58.3928" gradientUnits="userSpaceOnUse">
<stop stop-color="#CFD6E4"/>
<stop offset="1" stop-color="white"/>
</linearGradient>
<linearGradient id="paint1_linear_2725_50688" x1="22.8038" y1="29.3173" x2="35.8465" y2="30.6797" gradientUnits="userSpaceOnUse">
<stop stop-color="#F0F1F5"/>
<stop offset="1" stop-color="white"/>
</linearGradient>
</defs>
</svg>
