<svg width="56" height="56" viewBox="0 0 56 56" fill="none" xmlns="http://www.w3.org/2000/svg">
<path fill-rule="evenodd" clip-rule="evenodd" d="M2.61523 14.1538C2.61523 13.5166 3.13183 13 3.76908 13H36.0768C36.714 13 37.2306 13.5166 37.2306 14.1538V31.5014C37.2306 32.0437 36.848 32.5022 36.3414 32.6954C34.3639 33.4495 32.8563 35.175 32.3852 37.2978C32.252 37.8981 31.7561 38.3846 31.1411 38.3846H20.6281C20.0132 38.3846 19.5172 37.8978 19.384 37.2975C18.7472 34.4285 16.2169 32.2852 13.1923 32.2852C10.1678 32.2852 7.63744 34.4285 7.00067 37.2975C6.86743 37.8978 6.37146 38.3846 5.75651 38.3846H3.76908C3.13183 38.3846 2.61523 37.868 2.61523 37.2308V14.1538ZM44.8221 37.5653C44.9338 38.1927 45.4397 38.7136 46.0769 38.7136H52.2307C52.868 38.7136 53.3846 38.197 53.3846 37.5598V25.921C53.3846 25.6249 53.2707 25.3401 53.0666 25.1256L45.9469 17.6436C45.7291 17.4147 45.427 17.2852 45.1111 17.2852H39.7307C39.0935 17.2852 38.5769 17.8018 38.5769 18.439V32.2851L38.5769 32.2852C41.6948 32.2852 44.2876 34.5629 44.8221 37.5653ZM17.4229 38.7134C17.4229 41.0804 15.5288 42.9991 13.1922 42.9991C10.8556 42.9991 8.96141 41.0804 8.96141 38.7134C8.96141 36.3465 10.8556 34.4277 13.1922 34.4277C15.5288 34.4277 17.4229 36.3465 17.4229 38.7134ZM38.5768 42.9991C40.9134 42.9991 42.8076 41.0804 42.8076 38.7134C42.8076 36.3465 40.9134 34.4277 38.5768 34.4277C36.2402 34.4277 34.346 36.3465 34.346 38.7134C34.346 41.0804 36.2402 42.9991 38.5768 42.9991Z" fill="url(#paint0_linear_2725_50659)"/>
<path d="M22.1572 21.5184H11.8462V26.4053H22.1572V29.1541L28 23.9618L22.1572 18.7695V21.5184Z" fill="url(#paint1_linear_2725_50659)"/>
<defs>
<linearGradient id="paint0_linear_2725_50659" x1="37.3812" y1="21.8041" x2="13.7024" y2="59.8917" gradientUnits="userSpaceOnUse">
<stop stop-color="#CFD6E4"/>
<stop offset="1" stop-color="white"/>
</linearGradient>
<linearGradient id="paint1_linear_2725_50659" x1="10.1833" y1="24.5727" x2="29.261" y2="31.0823" gradientUnits="userSpaceOnUse">
<stop stop-color="#F0F1F5"/>
<stop offset="1" stop-color="white"/>
</linearGradient>
</defs>
</svg>
