<svg width="56" height="56" viewBox="0 0 56 56" fill="none" xmlns="http://www.w3.org/2000/svg">
<path fill-rule="evenodd" clip-rule="evenodd" d="M6.99985 10.9961C5.89528 10.9961 4.99985 11.8915 4.99985 12.9961V38.5778C4.99985 39.6824 5.89528 40.5778 6.99985 40.5778H48.9998C50.1044 40.5778 50.9998 39.6824 50.9998 38.5778V12.9961C50.9998 11.8915 50.1044 10.9961 48.9998 10.9961H6.99985ZM1.19007 42.6152C0.532811 42.6152 0 43.148 0 43.8053C0 44.4626 0.532812 44.9954 1.19007 44.9954H54.8098C55.467 44.9954 55.9999 44.4626 55.9999 43.8053C55.9999 43.148 55.467 42.6152 54.8098 42.6152H1.19007Z" fill="url(#paint0_linear_2725_50636)"/>
<rect x="8" y="14.0586" width="40" height="23.4614" rx="2" fill="url(#paint1_linear_2725_50636)"/>
<path fill-rule="evenodd" clip-rule="evenodd" d="M14 18.1387C13.4477 18.1387 13 18.5864 13 19.1387V21.2189C13 21.7712 13.4477 22.2189 14 22.2189H16C16.5523 22.2189 17 21.7712 17 21.2189V19.1387C17 18.5864 16.5523 18.1387 16 18.1387H14ZM20 19.1582C19.4477 19.1582 19 19.6059 19 20.1582V20.1983C19 20.7506 19.4477 21.1983 20 21.1983H42C42.5523 21.1983 43 20.7506 43 20.1983V20.1582C43 19.6059 42.5523 19.1582 42 19.1582H20ZM19 26.2793C19 25.727 19.4477 25.2793 20 25.2793H42C42.5523 25.2793 43 25.727 43 26.2793V26.3194C43 26.8717 42.5523 27.3194 42 27.3194H20C19.4477 27.3194 19 26.8717 19 26.3194V26.2793ZM14 24.2578C13.4477 24.2578 13 24.7055 13 25.2578V27.3381C13 27.8903 13.4477 28.3381 14 28.3381H16C16.5523 28.3381 17 27.8903 17 27.3381V25.2578C17 24.7055 16.5523 24.2578 16 24.2578H14ZM19 32.4004C19 31.8481 19.4477 31.4004 20 31.4004H42C42.5523 31.4004 43 31.8481 43 32.4004V32.4405C43 32.9928 42.5523 33.4405 42 33.4405H20C19.4477 33.4405 19 32.9928 19 32.4405V32.4004ZM14 30.3809C13.4477 30.3809 13 30.8286 13 31.3809V33.4611C13 34.0134 13.4477 34.4611 14 34.4611H16C16.5523 34.4611 17 34.0134 17 33.4611V31.3809C17 30.8286 16.5523 30.3809 16 30.3809H14Z" fill="white"/>
<path fill-rule="evenodd" clip-rule="evenodd" d="M14 18.1387C13.4477 18.1387 13 18.5864 13 19.1387V21.2189C13 21.7712 13.4477 22.2189 14 22.2189H16C16.5523 22.2189 17 21.7712 17 21.2189V19.1387C17 18.5864 16.5523 18.1387 16 18.1387H14ZM20 19.1582C19.4477 19.1582 19 19.6059 19 20.1582V20.1983C19 20.7506 19.4477 21.1983 20 21.1983H42C42.5523 21.1983 43 20.7506 43 20.1983V20.1582C43 19.6059 42.5523 19.1582 42 19.1582H20ZM19 26.2793C19 25.727 19.4477 25.2793 20 25.2793H42C42.5523 25.2793 43 25.727 43 26.2793V26.3194C43 26.8717 42.5523 27.3194 42 27.3194H20C19.4477 27.3194 19 26.8717 19 26.3194V26.2793ZM14 24.2578C13.4477 24.2578 13 24.7055 13 25.2578V27.3381C13 27.8903 13.4477 28.3381 14 28.3381H16C16.5523 28.3381 17 27.8903 17 27.3381V25.2578C17 24.7055 16.5523 24.2578 16 24.2578H14ZM19 32.4004C19 31.8481 19.4477 31.4004 20 31.4004H42C42.5523 31.4004 43 31.8481 43 32.4004V32.4405C43 32.9928 42.5523 33.4405 42 33.4405H20C19.4477 33.4405 19 32.9928 19 32.4405V32.4004ZM14 30.3809C13.4477 30.3809 13 30.8286 13 31.3809V33.4611C13 34.0134 13.4477 34.4611 14 34.4611H16C16.5523 34.4611 17 34.0134 17 33.4611V31.3809C17 30.8286 16.5523 30.3809 16 30.3809H14Z" fill="url(#paint2_linear_2725_50636)"/>
<defs>
<linearGradient id="paint0_linear_2725_50636" x1="38.3477" y1="21.4542" x2="11.9674" y2="63.594" gradientUnits="userSpaceOnUse">
<stop stop-color="#CFD6E4"/>
<stop offset="1" stop-color="white"/>
</linearGradient>
<linearGradient id="paint1_linear_2725_50636" x1="3.88235" y1="27.1694" x2="50.1512" y2="44.4729" gradientUnits="userSpaceOnUse">
<stop stop-color="#F0F1F5"/>
<stop offset="1" stop-color="white"/>
</linearGradient>
<linearGradient id="paint2_linear_2725_50636" x1="33.506" y1="22.1029" x2="24.5087" y2="41.2746" gradientUnits="userSpaceOnUse">
<stop stop-color="#CFD6E4"/>
<stop offset="1" stop-color="white"/>
</linearGradient>
</defs>
</svg>
