<svg width="24" height="24" viewBox="0 0 24 24" fill="none" xmlns="http://www.w3.org/2000/svg">
<rect width="24" height="24" fill="white"/>
<rect y="3" width="24" height="18" fill="#41479B"/>
<path d="M11.9327 4.63627C11.9603 4.58053 12.0397 4.58053 12.0673 4.63627L12.4234 5.35788C12.4343 5.38001 12.4554 5.39536 12.4799 5.39891L13.2762 5.51462C13.3377 5.52356 13.3623 5.59916 13.3178 5.64255L12.7415 6.20424C12.7239 6.22147 12.7158 6.2463 12.72 6.27063L12.856 7.06375C12.8665 7.12501 12.8022 7.17174 12.7472 7.14281L12.0349 6.76835C12.0131 6.75686 11.9869 6.75686 11.9651 6.76835L11.2528 7.14281C11.1978 7.17174 11.1335 7.12501 11.144 7.06375L11.28 6.27063C11.2842 6.2463 11.2761 6.22147 11.2585 6.20424L10.6822 5.64255C10.6377 5.59916 10.6623 5.52356 10.7238 5.51462L11.5201 5.39891C11.5446 5.39536 11.5657 5.38001 11.5766 5.35788L11.9327 4.63627Z" fill="#FFD018"/>
<path d="M11.9327 16.6363C11.9603 16.5805 12.0397 16.5805 12.0673 16.6363L12.4234 17.3579C12.4343 17.38 12.4554 17.3954 12.4799 17.3989L13.2762 17.5146C13.3377 17.5236 13.3623 17.5992 13.3178 17.6425L12.7415 18.2042C12.7239 18.2215 12.7158 18.2463 12.72 18.2706L12.856 19.0637C12.8665 19.125 12.8022 19.1717 12.7472 19.1428L12.0349 18.7683C12.0131 18.7569 11.9869 18.7569 11.9651 18.7683L11.2528 19.1428C11.1978 19.1717 11.1335 19.125 11.144 19.0637L11.28 18.2706C11.2842 18.2463 11.2761 18.2215 11.2585 18.2042L10.6822 17.6425C10.6377 17.5992 10.6623 17.5236 10.7238 17.5146L11.5201 17.3989C11.5446 17.3954 11.5657 17.38 11.5766 17.3579L11.9327 16.6363Z" fill="#FFD018"/>
<path d="M5.93274 10.6363C5.96026 10.5805 6.03974 10.5805 6.06726 10.6363L6.42339 11.3579C6.43431 11.38 6.45543 11.3954 6.47986 11.3989L7.2762 11.5146C7.33771 11.5236 7.36228 11.5992 7.31776 11.6425L6.74153 12.2042C6.72385 12.2215 6.71579 12.2463 6.71996 12.2706L6.85599 13.0637C6.8665 13.125 6.80219 13.1717 6.74717 13.1428L6.0349 12.7683C6.01305 12.7569 5.98695 12.7569 5.9651 12.7683L5.25283 13.1428C5.19781 13.1717 5.1335 13.125 5.14401 13.0637L5.28004 12.2706C5.28422 12.2463 5.27615 12.2215 5.25847 12.2042L4.68224 11.6425C4.63772 11.5992 4.66229 11.5236 4.7238 11.5146L5.52014 11.3989C5.54457 11.3954 5.56569 11.38 5.57661 11.3579L5.93274 10.6363Z" fill="#FFD018"/>
<path d="M17.9327 10.6363C17.9603 10.5805 18.0397 10.5805 18.0673 10.6363L18.4234 11.3579C18.4343 11.38 18.4554 11.3954 18.4799 11.3989L19.2762 11.5146C19.3377 11.5236 19.3623 11.5992 19.3178 11.6425L18.7415 12.2042C18.7239 12.2215 18.7158 12.2463 18.72 12.2706L18.856 13.0637C18.8665 13.125 18.8022 13.1717 18.7472 13.1428L18.0349 12.7683C18.0131 12.7569 17.9869 12.7569 17.9651 12.7683L17.2528 13.1428C17.1978 13.1717 17.1335 13.125 17.144 13.0637L17.28 12.2706C17.2842 12.2463 17.2761 12.2215 17.2585 12.2042L16.6822 11.6425C16.6377 11.5992 16.6623 11.5236 16.7238 11.5146L17.5201 11.3989C17.5446 11.3954 17.5657 11.38 17.5766 11.3579L17.9327 10.6363Z" fill="#FFD018"/>
<path d="M14.9327 5.44047C14.9603 5.38473 15.0397 5.38473 15.0673 5.44047L15.4234 6.16208C15.4343 6.18421 15.4554 6.19956 15.4799 6.20311L16.2762 6.31882C16.3377 6.32776 16.3623 6.40336 16.3178 6.44675L15.7415 7.00844C15.7239 7.02567 15.7158 7.05049 15.72 7.07482L15.856 7.86794C15.8665 7.92921 15.8022 7.97594 15.7472 7.94701L15.0349 7.57255C15.0131 7.56106 14.9869 7.56106 14.9651 7.57255L14.2528 7.94701C14.1978 7.97594 14.1335 7.92921 14.144 7.86795L14.28 7.07482C14.2842 7.05049 14.2761 7.02567 14.2585 7.00844L13.6822 6.44675C13.6377 6.40336 13.6623 6.32776 13.7238 6.31882L14.5201 6.20311C14.5446 6.19956 14.5657 6.18421 14.5766 6.16208L14.9327 5.44047Z" fill="#FFD018"/>
<path d="M8.93274 15.8321C8.96026 15.7763 9.03974 15.7763 9.06726 15.8321L9.42339 16.5537C9.43431 16.5758 9.45543 16.5912 9.47986 16.5947L10.2762 16.7104C10.3377 16.7194 10.3623 16.795 10.3178 16.8383L9.74153 17.4C9.72385 17.4173 9.71579 17.4421 9.71996 17.4664L9.85599 18.2595C9.8665 18.3208 9.80219 18.3675 9.74717 18.3386L9.0349 17.9641C9.01305 17.9527 8.98695 17.9527 8.9651 17.9641L8.25283 18.3386C8.19781 18.3675 8.1335 18.3208 8.14401 18.2595L8.28004 17.4664C8.28422 17.4421 8.27615 17.4173 8.25847 17.4L7.68224 16.8383C7.63772 16.795 7.66229 16.7194 7.7238 16.7104L8.52014 16.5947C8.54457 16.5912 8.56569 16.5758 8.57661 16.5537L8.93274 15.8321Z" fill="#FFD018"/>
<path d="M6.73743 7.63627C6.76494 7.58053 6.84443 7.58053 6.87194 7.63627L7.22808 8.35788C7.239 8.38001 7.26012 8.39536 7.28455 8.39891L8.08088 8.51462C8.1424 8.52356 8.16696 8.59916 8.12245 8.64255L7.54622 9.20424C7.52854 9.22147 7.52047 9.2463 7.52465 9.27063L7.66068 10.0637C7.67118 10.125 7.60688 10.1717 7.55185 10.1428L6.83959 9.76835C6.81774 9.75686 6.79164 9.75686 6.76979 9.76835L6.05752 10.1428C6.0025 10.1717 5.93819 10.125 5.9487 10.0637L6.08473 9.27063C6.0889 9.2463 6.08084 9.22147 6.06316 9.20424L5.48692 8.64255C5.44241 8.59916 5.46697 8.52356 5.52849 8.51462L6.32483 8.39891C6.34926 8.39536 6.37037 8.38001 6.3813 8.35788L6.73743 7.63627Z" fill="#FFD018"/>
<path d="M17.1281 13.6363C17.1556 13.5805 17.2351 13.5805 17.2626 13.6363L17.6187 14.3579C17.6296 14.38 17.6507 14.3954 17.6752 14.3989L18.4715 14.5146C18.533 14.5236 18.5576 14.5992 18.5131 14.6425L17.9368 15.2042C17.9192 15.2215 17.9111 15.2463 17.9153 15.2706L18.0513 16.0637C18.0618 16.125 17.9975 16.1717 17.9425 16.1428L17.2302 15.7683C17.2084 15.7569 17.1823 15.7569 17.1604 15.7683L16.4481 16.1428C16.3931 16.1717 16.3288 16.125 16.3393 16.0637L16.4754 15.2706C16.4795 15.2463 16.4715 15.2215 16.4538 15.2042L15.8775 14.6425C15.833 14.5992 15.8576 14.5236 15.9191 14.5146L16.7155 14.3989C16.7399 14.3954 16.761 14.38 16.7719 14.3579L17.1281 13.6363Z" fill="#FFD018"/>
<path d="M17.1281 7.63627C17.1556 7.58053 17.2351 7.58053 17.2626 7.63627L17.6187 8.35788C17.6296 8.38001 17.6507 8.39536 17.6752 8.39891L18.4715 8.51462C18.533 8.52356 18.5576 8.59916 18.5131 8.64255L17.9368 9.20424C17.9192 9.22147 17.9111 9.2463 17.9153 9.27063L18.0513 10.0637C18.0618 10.125 17.9975 10.1717 17.9425 10.1428L17.2302 9.76835C17.2084 9.75686 17.1823 9.75686 17.1604 9.76835L16.4481 10.1428C16.3931 10.1717 16.3288 10.125 16.3393 10.0637L16.4754 9.27063C16.4795 9.2463 16.4715 9.22147 16.4538 9.20424L15.8775 8.64255C15.833 8.59916 15.8576 8.52356 15.9191 8.51462L16.7155 8.39891C16.7399 8.39536 16.761 8.38001 16.7719 8.35788L17.1281 7.63627Z" fill="#FFD018"/>
<path d="M6.73743 13.6363C6.76494 13.5805 6.84443 13.5805 6.87194 13.6363L7.22808 14.3579C7.239 14.38 7.26012 14.3954 7.28455 14.3989L8.08088 14.5146C8.1424 14.5236 8.16696 14.5992 8.12245 14.6425L7.54622 15.2042C7.52854 15.2215 7.52047 15.2463 7.52465 15.2706L7.66068 16.0637C7.67118 16.125 7.60688 16.1717 7.55185 16.1428L6.83959 15.7683C6.81774 15.7569 6.79164 15.7569 6.76979 15.7683L6.05752 16.1428C6.0025 16.1717 5.93819 16.125 5.9487 16.0637L6.08473 15.2706C6.0889 15.2463 6.08084 15.2215 6.06316 15.2042L5.48692 14.6425C5.44241 14.5992 5.46697 14.5236 5.52849 14.5146L6.32483 14.3989C6.34926 14.3954 6.37037 14.38 6.3813 14.3579L6.73743 13.6363Z" fill="#FFD018"/>
<path d="M8.93274 5.44047C8.96026 5.38473 9.03974 5.38473 9.06726 5.44047L9.42339 6.16208C9.43431 6.18421 9.45543 6.19956 9.47986 6.20311L10.2762 6.31882C10.3377 6.32776 10.3623 6.40336 10.3178 6.44675L9.74153 7.00844C9.72385 7.02567 9.71579 7.05049 9.71996 7.07482L9.85599 7.86794C9.8665 7.92921 9.80219 7.97594 9.74717 7.94701L9.0349 7.57255C9.01305 7.56106 8.98695 7.56106 8.9651 7.57255L8.25283 7.94701C8.19781 7.97594 8.1335 7.92921 8.14401 7.86795L8.28004 7.07482C8.28422 7.05049 8.27615 7.02567 8.25847 7.00844L7.68224 6.44675C7.63772 6.40336 7.66229 6.32776 7.7238 6.31882L8.52014 6.20311C8.54457 6.19956 8.56569 6.18421 8.57661 6.16208L8.93274 5.44047Z" fill="#FFD018"/>
<path d="M14.9327 15.8321C14.9603 15.7763 15.0397 15.7763 15.0673 15.8321L15.4234 16.5537C15.4343 16.5758 15.4554 16.5912 15.4799 16.5947L16.2762 16.7104C16.3377 16.7194 16.3623 16.795 16.3178 16.8383L15.7415 17.4C15.7239 17.4173 15.7158 17.4421 15.72 17.4664L15.856 18.2595C15.8665 18.3208 15.8022 18.3675 15.7472 18.3386L15.0349 17.9641C15.0131 17.9527 14.9869 17.9527 14.9651 17.9641L14.2528 18.3386C14.1978 18.3675 14.1335 18.3208 14.144 18.2595L14.28 17.4664C14.2842 17.4421 14.2761 17.4173 14.2585 17.4L13.6822 16.8383C13.6377 16.795 13.6623 16.7194 13.7238 16.7104L14.5201 16.5947C14.5446 16.5912 14.5657 16.5758 14.5766 16.5537L14.9327 15.8321Z" fill="#FFD018"/>
</svg>
