<svg width="452" height="370" viewBox="0 0 452 370" fill="none" xmlns="http://www.w3.org/2000/svg">
<path opacity="0.2" fill-rule="evenodd" clip-rule="evenodd" d="M363.91 116.897C357.521 116.956 351.05 117.548 344.547 118.708C281.303 129.99 239.031 190.759 250.129 254.439C251.27 260.987 252.931 267.31 255.061 273.374L43.5383 311.11C43.5383 311.11 40.5394 293.902 36.8401 272.676C36.8401 272.676 10.3975 120.949 6.69824 99.722C2.99894 78.4955 0.0024512 61.2875 0.0024512 61.2875L343.538 9.18794e-05C343.538 9.18794e-05 346.537 17.208 350.236 38.4345L363.91 116.897ZM295.199 45.0759L189.011 129.577L60.6611 86.9177L51.5116 114.719L187.289 159.847C191.926 161.388 197.025 160.479 200.861 157.426L313.195 68.0346L295.199 45.0759Z" fill="url(#paint0_linear_2804_47801)"/>
<path opacity="0.2" d="M363.91 116.897C357.521 116.956 351.05 117.548 344.547 118.708C281.303 129.99 239.031 190.759 250.129 254.439C251.27 260.987 252.931 267.31 255.061 273.374L387.076 249.822L363.91 116.897Z" fill="url(#paint1_linear_2804_47801)"/>
<path fill-rule="evenodd" clip-rule="evenodd" d="M427.864 175.72C421.474 175.779 415.003 176.371 408.5 177.531C345.257 188.813 302.984 249.582 314.082 313.262C315.223 319.81 316.884 326.133 319.015 332.197L107.492 369.933C107.492 369.933 104.493 352.725 100.793 331.499C100.793 331.499 74.3509 179.772 70.6516 158.545C66.9523 137.318 63.9558 120.11 63.9558 120.11L407.491 58.8231C407.491 58.8231 410.49 76.031 414.189 97.2575L427.864 175.72ZM359.153 103.899L252.964 188.4L124.614 145.741L115.465 173.542L251.242 218.67C255.879 220.211 260.978 219.302 264.815 216.249L377.148 126.858L359.153 103.899Z" fill="url(#paint2_linear_2804_47801)"/>
<path d="M427.864 175.72C421.474 175.779 415.003 176.371 408.5 177.531C345.257 188.813 302.984 249.582 314.082 313.262C315.223 319.81 316.884 326.133 319.015 332.197L451.029 308.645L427.864 175.72Z" fill="url(#paint3_linear_2804_47801)"/>
<defs>
<linearGradient id="paint0_linear_2804_47801" x1="182.561" y1="130.681" x2="213.809" y2="286.154" gradientUnits="userSpaceOnUse">
<stop stop-color="white"/>
<stop offset="1" stop-color="white" stop-opacity="0"/>
</linearGradient>
<linearGradient id="paint1_linear_2804_47801" x1="182.561" y1="130.681" x2="213.809" y2="286.154" gradientUnits="userSpaceOnUse">
<stop stop-color="white"/>
<stop offset="1" stop-color="white" stop-opacity="0"/>
</linearGradient>
<linearGradient id="paint2_linear_2804_47801" x1="246.515" y1="189.504" x2="277.762" y2="344.977" gradientUnits="userSpaceOnUse">
<stop stop-color="white"/>
<stop offset="1" stop-color="white" stop-opacity="0"/>
</linearGradient>
<linearGradient id="paint3_linear_2804_47801" x1="246.515" y1="189.504" x2="277.762" y2="344.977" gradientUnits="userSpaceOnUse">
<stop stop-color="white"/>
<stop offset="1" stop-color="white" stop-opacity="0"/>
</linearGradient>
</defs>
</svg>
