<svg width="189" height="36" viewBox="0 0 189 36" xmlns="http://www.w3.org/2000/svg">
<g class="text" clip-path="url(#clip0_419_562)">
<path d="M63.0131 21.5924C63.0131 28.7849 68.3108 34.5979 75.4899 34.5979C80.3916 34.5979 84.2039 31.7406 85.7883 27.9966L85.9864 34.1053H90.0463V9.17812H85.9864L85.7883 15.2867C84.2039 11.5427 80.3916 8.68548 75.4899 8.68548C68.3108 8.68548 63.0131 14.4985 63.0131 21.5924ZM67.2711 21.5924C67.2711 16.7646 71.232 12.6758 76.3316 12.6758C81.4808 12.6758 85.3427 16.7646 85.3427 21.5924C85.3427 26.5187 81.4808 30.6076 76.3316 30.6076C71.232 30.6076 67.2711 26.5187 67.2711 21.5924ZM115.094 9.17812V21.888H115.044C115.044 25.435 112.668 30.6076 106.726 30.6076C102.864 30.6076 100.191 28.243 100.191 21.9865V9.17812H95.9329V23.76C95.9329 30.8046 99.4482 34.5979 105.241 34.5979C109.598 34.5979 112.816 32.4303 115.143 29.7209L115.292 34.1053H119.302V9.17812H115.094ZM144.587 9.17812L136.269 29.7209L127.952 9.17812H123.198L133.843 34.1053H138.695L149.34 9.17812H144.587ZM155.533 5.04001C156.919 5.04001 157.959 3.95622 157.959 2.62611C157.959 1.24674 156.919 0.212219 155.533 0.212219C154.196 0.212219 153.107 1.24674 153.107 2.62611C153.107 3.95622 154.196 5.04001 155.533 5.04001ZM157.662 9.17812H153.404V34.1053H157.662V9.17812ZM162.798 34.1053H168.046L175.572 24.5482L183.048 34.1053H188.296L178.146 21.6417L188.296 9.17812H183.048L175.572 18.7352L168.046 9.17812H162.798L172.948 21.6417L162.798 34.1053Z"/>
<path d="M16.1865 36L-0.952057 9.47369H30.709C31.839 9.47369 32.5214 10.7174 31.9104 11.6632L16.1865 36Z" fill="url(#paint0_linear_419_562)"/>
<path d="M52.3678 36H20.7067C19.5768 36 18.8943 34.7563 19.5054 33.8105L35.2293 9.47369L52.3678 36Z" fill="url(#paint1_linear_419_562)"/>
</g>
<defs>
<linearGradient id="paint0_linear_419_562" x1="33.325" y1="9.47369" x2="10.1642" y2="23.0216" gradientUnits="userSpaceOnUse">
<stop offset="0.195206"/>
<stop offset="1" stop-opacity="0"/>
</linearGradient>
<linearGradient id="paint1_linear_419_562" x1="18.0907" y1="36" x2="40.4912" y2="21.6607" gradientUnits="userSpaceOnUse">
<stop offset="0.237201"/>
<stop offset="1" stop-opacity="0"/>
</linearGradient>
    <linearGradient id="paint0_linear_2556_68087" x1="63.0441" y1="20.486" x2="18.5403" y2="44.02" gradientUnits="userSpaceOnUse">
        <stop offset="0.015625" stop-color="#FF8654"/>
        <stop offset="0.494792" stop-color="#B457FF"/>
        <stop offset="0.739583" stop-color="#B457FF" stop-opacity="0.71"/>
        <stop offset="1" stop-color="#B457FF" stop-opacity="0"/>
    </linearGradient>
    <linearGradient id="paint1_linear_2556_68087" x1="38.0292" y1="68.953" x2="83.5314" y2="43.9178" gradientUnits="userSpaceOnUse">
        <stop offset="0.015625" stop-color="#94F49E"/>
        <stop offset="0.486174" stop-color="#2FCEFF"/>
        <stop offset="0.782189" stop-color="#56D7FF" stop-opacity="0.6"/>
        <stop offset="1" stop-color="#73DEFF" stop-opacity="0"/>
    </linearGradient>
<clipPath id="clip0_419_562">
<rect width="189" height="36" fill="white"/>
</clipPath>
</defs>
</svg>
