<svg width="56" height="56" viewBox="0 0 56 56" fill="none" xmlns="http://www.w3.org/2000/svg">
<path d="M13.6666 4.66602H32.0515C32.8791 4.66602 33.68 4.95928 34.3118 5.49374L45.4269 14.8952C46.2131 15.5602 46.6666 16.5377 46.6666 17.5675V46.8605C46.6666 51.0384 46.6189 51.3327 42.3333 51.3327H13.6666C9.38096 51.3327 9.33325 51.0384 9.33325 46.8605V9.13824C9.33325 4.96031 9.38096 4.66602 13.6666 4.66602Z" fill="url(#paint0_linear_2725_50299)"/>
<path fill-rule="evenodd" clip-rule="evenodd" d="M16.3333 23.916C16.3333 22.9495 17.1168 22.166 18.0833 22.166H37.9166C38.8831 22.166 39.6666 22.9495 39.6666 23.916C39.6666 24.8825 38.8831 25.666 37.9166 25.666H18.0833C17.1168 25.666 16.3333 24.8825 16.3333 23.916ZM16.3333 30.916C16.3333 29.9495 17.1168 29.166 18.0833 29.166H37.9166C38.8831 29.166 39.6666 29.9495 39.6666 30.916C39.6666 31.8825 38.8831 32.666 37.9166 32.666H18.0833C17.1168 32.666 16.3333 31.8825 16.3333 30.916ZM18.0833 36.166C17.1168 36.166 16.3333 36.9495 16.3333 37.916C16.3333 38.8825 17.1168 39.666 18.0833 39.666H37.9166C38.8831 39.666 39.6666 38.8825 39.6666 37.916C39.6666 36.9495 38.8831 36.166 37.9166 36.166H18.0833Z" fill="url(#paint1_linear_2725_50299)"/>
<defs>
<linearGradient id="paint0_linear_2725_50299" x1="34.8985" y1="18.3617" x2="-4.68138" y2="48.4568" gradientUnits="userSpaceOnUse">
<stop stop-color="#CFD6E4"/>
<stop offset="1" stop-color="white"/>
</linearGradient>
<linearGradient id="paint1_linear_2725_50299" x1="13.9313" y1="31.9454" x2="42.2721" y2="40.2342" gradientUnits="userSpaceOnUse">
<stop stop-color="#F0F1F5"/>
<stop offset="1" stop-color="white"/>
</linearGradient>
</defs>
</svg>
