<svg width="56" height="56" viewBox="0 0 56 56" fill="none" xmlns="http://www.w3.org/2000/svg">
<rect x="8.16675" y="5.6875" width="39.6667" height="44.625" rx="3.71875" fill="#C4C4C4"/>
<rect x="8.16675" y="5.6875" width="39.6667" height="44.625" rx="3.71875" fill="url(#paint0_linear_2725_50309)"/>
<path fill-rule="evenodd" clip-rule="evenodd" d="M21.802 18.082C21.802 20.1358 20.1371 21.8008 18.0833 21.8008C16.0294 21.8008 14.3645 20.1358 14.3645 18.082C14.3645 16.0282 16.0294 14.3633 18.0833 14.3633C20.1371 14.3633 21.802 16.0282 21.802 18.082ZM21.802 27.998C21.802 30.0519 20.1371 31.7168 18.0833 31.7168C16.0294 31.7168 14.3645 30.0519 14.3645 27.998C14.3645 25.9442 16.0294 24.2793 18.0833 24.2793C20.1371 24.2793 21.802 25.9442 21.802 27.998ZM18.0833 41.6348C20.1371 41.6348 21.802 39.9698 21.802 37.916C21.802 35.8622 20.1371 34.1973 18.0833 34.1973C16.0294 34.1973 14.3645 35.8622 14.3645 37.916C14.3645 39.9698 16.0294 41.6348 18.0833 41.6348ZM31.7187 18.082C31.7187 20.1358 30.0537 21.8008 27.9999 21.8008C25.9461 21.8008 24.2812 20.1358 24.2812 18.082C24.2812 16.0282 25.9461 14.3633 27.9999 14.3633C30.0537 14.3633 31.7187 16.0282 31.7187 18.082ZM27.9999 31.7168C30.0537 31.7168 31.7187 30.0519 31.7187 27.998C31.7187 25.9442 30.0537 24.2793 27.9999 24.2793C25.9461 24.2793 24.2812 25.9442 24.2812 27.998C24.2812 30.0519 25.9461 31.7168 27.9999 31.7168ZM31.7187 37.916C31.7187 39.9698 30.0537 41.6348 27.9999 41.6348C25.9461 41.6348 24.2812 39.9698 24.2812 37.916C24.2812 35.8622 25.9461 34.1973 27.9999 34.1973C30.0537 34.1973 31.7187 35.8622 31.7187 37.916ZM37.9166 21.8008C39.9704 21.8008 41.6353 20.1358 41.6353 18.082C41.6353 16.0282 39.9704 14.3633 37.9166 14.3633C35.8628 14.3633 34.1978 16.0282 34.1978 18.082C34.1978 20.1358 35.8628 21.8008 37.9166 21.8008ZM41.6353 27.998C41.6353 30.0519 39.9704 31.7168 37.9166 31.7168C35.8628 31.7168 34.1978 30.0519 34.1978 27.998C34.1978 25.9442 35.8628 24.2793 37.9166 24.2793C39.9704 24.2793 41.6353 25.9442 41.6353 27.998ZM37.9166 41.6348C39.9704 41.6348 41.6353 39.9698 41.6353 37.916C41.6353 35.8622 39.9704 34.1973 37.9166 34.1973C35.8628 34.1973 34.1978 35.8622 34.1978 37.916C34.1978 39.9698 35.8628 41.6348 37.9166 41.6348Z" fill="url(#paint1_linear_2725_50309)"/>
<defs>
<linearGradient id="paint0_linear_2725_50309" x1="35.3298" y1="18.784" x2="-3.39597" y2="51.5014" gradientUnits="userSpaceOnUse">
<stop stop-color="#CFD6E4"/>
<stop offset="1" stop-color="white"/>
</linearGradient>
<linearGradient id="paint1_linear_2725_50309" x1="11.5572" y1="29.6032" x2="45.8633" y2="37.1281" gradientUnits="userSpaceOnUse">
<stop stop-color="#F0F1F5"/>
<stop offset="1" stop-color="white"/>
</linearGradient>
</defs>
</svg>
