<svg width="56" height="56" viewBox="0 0 56 56" fill="none" xmlns="http://www.w3.org/2000/svg">
<circle cx="28" cy="28" r="25" fill="#C4C4C4"/>
<circle cx="28" cy="28" r="25" fill="url(#paint0_linear_2725_50385)"/>
<path d="M26.7305 33.457V28.5469C25.1992 28.1094 24.0742 27.4492 23.3555 26.5664C22.6445 25.6758 22.2891 24.5977 22.2891 23.332C22.2891 22.0508 22.6914 20.9766 23.4961 20.1094C24.3086 19.2344 25.3867 18.7305 26.7305 18.5977V17.4375H28.4297V18.5977C29.6719 18.7461 30.6602 19.1719 31.3945 19.875C32.1289 20.5703 32.5977 21.5039 32.8008 22.6758L29.8359 23.0625C29.6562 22.1406 29.1875 21.5156 28.4297 21.1875V25.7695C30.3047 26.2773 31.582 26.9375 32.2617 27.75C32.9414 28.5547 33.2812 29.5898 33.2812 30.8555C33.2812 32.2695 32.8516 33.4609 31.9922 34.4297C31.1406 35.3984 29.9531 35.9922 28.4297 36.2109V38.4023H26.7305V36.2695C25.3789 36.1055 24.2812 35.6016 23.4375 34.7578C22.5938 33.9141 22.0547 32.7227 21.8203 31.1836L24.8789 30.8555C25.0039 31.4805 25.2383 32.0195 25.582 32.4727C25.9258 32.9258 26.3086 33.2539 26.7305 33.457ZM26.7305 21.1523C26.2695 21.3086 25.9023 21.5742 25.6289 21.9492C25.3555 22.3242 25.2188 22.7383 25.2188 23.1914C25.2188 23.6055 25.3438 23.9922 25.5938 24.3516C25.8438 24.7031 26.2227 24.9883 26.7305 25.207V21.1523ZM28.4297 33.6211C29.0156 33.5117 29.4922 33.2422 29.8594 32.8125C30.2266 32.375 30.4102 31.8633 30.4102 31.2773C30.4102 30.7539 30.2539 30.3047 29.9414 29.9297C29.6367 29.5469 29.1328 29.2539 28.4297 29.0508V33.6211Z" fill="url(#paint1_linear_2725_50385)"/>
<defs>
<linearGradient id="paint0_linear_2725_50385" x1="37.2391" y1="17.6739" x2="-6.71246" y2="59.4479" gradientUnits="userSpaceOnUse">
<stop stop-color="#CFD6E4"/>
<stop offset="1" stop-color="white"/>
</linearGradient>
<linearGradient id="paint1_linear_2725_50385" x1="19.5588" y1="29.8824" x2="37.8494" y2="31.6376" gradientUnits="userSpaceOnUse">
<stop stop-color="#F0F1F5"/>
<stop offset="1" stop-color="white"/>
</linearGradient>
</defs>
</svg>
