<svg width="56" height="56" viewBox="0 0 56 56" fill="none" xmlns="http://www.w3.org/2000/svg">
<path fill-rule="evenodd" clip-rule="evenodd" d="M6.66653 11.666C5.56196 11.666 4.66653 12.5614 4.66653 13.666V37.6659C4.66653 38.7705 5.56196 39.6659 6.66653 39.6659H49.3331C50.4376 39.6659 51.3331 38.7705 51.3331 37.6659V13.666C51.3331 12.5614 50.4376 11.666 49.3331 11.666H6.66653ZM1.16666 41.9981C0.522333 41.9981 0 42.5205 0 43.1648C0 43.8091 0.522332 44.3315 1.16666 44.3315H54.8332C55.4775 44.3315 55.9999 43.8091 55.9999 43.1648C55.9999 42.5205 55.4775 41.9981 54.8332 41.9981H1.16666Z" fill="#C4C4C4"/>
<path fill-rule="evenodd" clip-rule="evenodd" d="M6.66653 11.666C5.56196 11.666 4.66653 12.5614 4.66653 13.666V37.6659C4.66653 38.7705 5.56196 39.6659 6.66653 39.6659H49.3331C50.4376 39.6659 51.3331 38.7705 51.3331 37.6659V13.666C51.3331 12.5614 50.4376 11.666 49.3331 11.666H6.66653ZM1.16666 41.9981C0.522333 41.9981 0 42.5205 0 43.1648C0 43.8091 0.522332 44.3315 1.16666 44.3315H54.8332C55.4775 44.3315 55.9999 43.8091 55.9999 43.1648C55.9999 42.5205 55.4775 41.9981 54.8332 41.9981H1.16666Z" fill="url(#paint0_linear_2725_50325)"/>
<path fill-rule="evenodd" clip-rule="evenodd" d="M20.1734 18.9375C20.1734 18.3852 20.6212 17.9375 21.1734 17.9375H25.8818C26.4341 17.9375 26.8818 18.3852 26.8818 18.9375V23.6458C26.8818 24.1981 26.4341 24.6458 25.8818 24.6458H21.1734C20.6212 24.6458 20.1734 24.1981 20.1734 23.6458V18.9375ZM15.7012 27.8828C15.7012 27.3305 16.1489 26.8828 16.7012 26.8828H21.4095C21.9618 26.8828 22.4095 27.3305 22.4095 27.8828V32.5912C22.4095 33.1434 21.9618 33.5912 21.4095 33.5912H16.7012C16.1489 33.5912 15.7012 33.1434 15.7012 32.5912V27.8828ZM25.6457 26.8828C25.0934 26.8828 24.6457 27.3305 24.6457 27.8828V32.5912C24.6457 33.1434 25.0934 33.5912 25.6457 33.5912H30.354C30.9063 33.5912 31.354 33.1434 31.354 32.5912V27.8828C31.354 27.3305 30.9063 26.8828 30.354 26.8828H25.6457ZM29.118 18.9375C29.118 18.3852 29.5657 17.9375 30.118 17.9375H34.8263C35.3786 17.9375 35.8263 18.3852 35.8263 18.9375V23.6458C35.8263 24.1981 35.3786 24.6458 34.8263 24.6458H30.118C29.5657 24.6458 29.118 24.1981 29.118 23.6458V18.9375ZM34.5901 26.8828C34.0378 26.8828 33.5901 27.3305 33.5901 27.8828V32.5912C33.5901 33.1434 34.0378 33.5912 34.5901 33.5912H39.2984C39.8507 33.5912 40.2984 33.1434 40.2984 32.5912V27.8828C40.2984 27.3305 39.8507 26.8828 39.2984 26.8828H34.5901Z" fill="url(#paint1_linear_2725_50325)"/>
<defs>
<linearGradient id="paint0_linear_2725_50325" x1="38.3477" y1="21.2526" x2="12.7129" y2="63.0221" gradientUnits="userSpaceOnUse">
<stop stop-color="#CFD6E4"/>
<stop offset="1" stop-color="white"/>
</linearGradient>
<linearGradient id="paint1_linear_2725_50325" x1="13.1691" y1="26.6851" x2="42.1568" y2="36.6765" gradientUnits="userSpaceOnUse">
<stop stop-color="#F0F1F5"/>
<stop offset="1" stop-color="white"/>
</linearGradient>
</defs>
</svg>
