<svg width="56" height="56" viewBox="0 0 56 56" fill="none" xmlns="http://www.w3.org/2000/svg">
<path fill-rule="evenodd" clip-rule="evenodd" d="M7.19995 10C6.09538 10 5.19995 10.8954 5.19995 12V15.6C5.19995 16.7046 6.09538 17.6 7.19995 17.6H9V45.9996C9 47.1042 9.89543 47.9996 11 47.9996H45C46.1046 47.9996 47 47.1042 47 45.9996V17.6H48.7999C49.9045 17.6 50.7999 16.7046 50.7999 15.6V12C50.7999 10.8954 49.9045 10 48.7999 10H7.19995Z" fill="#C4C4C4" fill-opacity="0.2"/>
<path fill-rule="evenodd" clip-rule="evenodd" d="M7.19995 10C6.09538 10 5.19995 10.8954 5.19995 12V15.6C5.19995 16.7046 6.09538 17.6 7.19995 17.6H9V45.9996C9 47.1042 9.89543 47.9996 11 47.9996H45C46.1046 47.9996 47 47.1042 47 45.9996V17.6H48.7999C49.9045 17.6 50.7999 16.7046 50.7999 15.6V12C50.7999 10.8954 49.9045 10 48.7999 10H7.19995Z" fill="url(#paint0_linear_2725_50349)"/>
<path fill-rule="evenodd" clip-rule="evenodd" d="M21.6668 25.1992C20.9672 25.1992 20.4001 25.7663 20.4001 26.4659C20.4001 27.1654 20.9672 27.7326 21.6668 27.7326H34.3334C35.033 27.7326 35.6001 27.1654 35.6001 26.4659C35.6001 25.7663 35.033 25.1992 34.3335 25.1992H21.6668ZM17.8668 30.2656C17.1672 30.2656 16.6001 30.8327 16.6001 31.5323V39.1323C16.6001 39.8319 17.1672 40.399 17.8668 40.399H38.1334C38.833 40.399 39.4001 39.8319 39.4001 39.1323V31.5323C39.4001 30.8327 38.833 30.2656 38.1334 30.2656H17.8668Z" fill="url(#paint1_linear_2725_50349)"/>
<defs>
<linearGradient id="paint0_linear_2725_50349" x1="36.426" y1="21.1521" x2="3.26722" y2="58.9716" gradientUnits="userSpaceOnUse">
<stop stop-color="#CFD6E4"/>
<stop offset="1" stop-color="white"/>
</linearGradient>
<linearGradient id="paint1_linear_2725_50349" x1="14.253" y1="33.6932" x2="41.3782" y2="42.6183" gradientUnits="userSpaceOnUse">
<stop stop-color="#F0F1F5"/>
<stop offset="1" stop-color="white"/>
</linearGradient>
</defs>
</svg>
