<svg width="81" height="36" viewBox="0 0 81 36" fill="none" xmlns="http://www.w3.org/2000/svg">
<path d="M17.7745 36C27.5829 36 35.549 27.9502 35.549 18.004C35.549 8.05722 27.5829 0 17.7745 0C7.95092 0 0 8.05722 0 18.004C0 27.9502 7.95092 36 17.7745 36Z" fill="#353940"/>
<path d="M17.0591 10.1016V25.8958H22.0134V24.4757H18.487V10.1016H17.0591Z" fill="white"/>
<path d="M12.0975 14.4134C13.2762 14.4134 14.2263 13.4421 14.2263 12.2559C14.2263 11.0688 13.2762 10.0938 12.0975 10.0938C10.9189 10.0938 9.96875 11.0688 9.96875 12.2559C9.96875 13.443 10.9189 14.4134 12.0975 14.4134Z" fill="white"/>
<path d="M18.4851 2.93894C18.2993 2.92962 17.9461 2.91797 17.7774 2.91797C9.57305 2.91797 2.896 9.6874 2.896 17.9972C2.896 22.0335 4.4435 25.8168 7.24649 28.6618C10.061 31.5002 13.7957 33.0686 17.7774 33.0686C21.7439 33.0686 25.4777 31.5002 28.2871 28.6618C31.097 25.8168 32.6518 22.0335 32.6518 17.9972V17.3265H32.0499H22.0258V18.7145H31.2345C31.2345 18.7448 31.2345 18.8921 31.228 18.9303C30.7599 26.0344 24.9056 31.661 17.7774 31.661C14.1691 31.661 10.7858 30.239 8.23938 27.6564C5.68473 25.0845 4.27703 21.6583 4.27703 17.9968C4.27703 14.3562 5.68473 10.9123 8.23938 8.33249C10.7858 5.75503 14.1691 4.33301 17.7774 4.33301C17.9328 4.33301 18.3108 4.33301 18.4851 4.34233V2.93894Z" fill="white"/>
<path d="M48.9163 6.05928H43.5752V29.4931H59.9802V24.9316H48.9163V6.05928ZM71.7297 20.5629H76.0798V24.6603C75.2777 24.9698 73.7137 25.2783 72.2255 25.2783C67.4183 25.2783 65.817 22.8039 65.817 17.7781C65.817 12.9853 67.342 10.1594 72.1491 10.1594C74.8206 10.1594 76.3465 11.0105 77.6038 12.6348L80.9246 9.54048C78.9021 6.60414 75.3531 5.71484 72.0351 5.71484C64.5555 5.71484 60.6268 9.85182 60.6268 17.7389C60.6268 25.5878 64.1748 29.8408 71.9974 29.8408C75.5831 29.8408 79.0934 28.9133 81 27.5603V16.1925H71.7297V20.5629Z" fill="#353940"/>
</svg>
