<svg width="111" height="24" viewBox="0 0 111 24" fill="none" xmlns="http://www.w3.org/2000/svg">
<path d="M11.3614 19.379H3.93347V13.8477H11.3614C12.8013 13.8477 13.9779 15.0913 13.9779 16.6133C13.9779 18.1539 12.8013 19.379 11.3614 19.379ZM11.3614 4.62262C12.6784 4.62262 13.7672 5.75487 13.7672 7.16554C13.7672 8.55765 12.696 9.70846 11.3614 9.70846H3.93347V4.64118H11.3614V4.62262ZM17.6831 7.16554C17.6831 3.47181 14.8559 0.464844 11.3614 0.464844H0V23.5368H11.3439C14.9612 23.5368 17.8938 20.437 17.8938 16.6133C17.8938 14.7015 17.1563 12.9567 15.9622 11.7131C17.0333 10.5252 17.6831 8.92888 17.6831 7.16554Z" fill="#353940"/>
<path d="M55.1368 9.6899H47.7089V4.62262H55.1368C56.4714 4.62262 57.5426 5.75487 57.5426 7.16554C57.5426 8.55765 56.4538 9.6899 55.1368 9.6899ZM61.4585 7.16554C61.4585 3.47181 58.6313 0.464844 55.1368 0.464844H43.793V23.5368H47.7264V13.8477H55.1544C56.5943 13.8477 57.7708 15.0913 57.7708 16.6133V23.5368H61.7043V16.6133C61.7043 14.7015 60.9668 12.9567 59.7727 11.7131C60.8088 10.5252 61.4585 8.92888 61.4585 7.16554Z" fill="#353940"/>
<path d="M67.7899 12.0101C67.7899 7.92656 70.9156 4.62262 74.7789 4.62262H81.3288V0.464844H74.7789C68.7557 0.464844 63.8564 5.62494 63.8564 12.0101C63.8564 18.3952 68.7382 23.5368 74.7789 23.5368H81.3288V19.379H74.7789C70.9156 19.379 67.7899 16.0751 67.7899 12.0101Z" fill="#353940"/>
<path d="M94.0902 19.8422C89.9986 19.8422 86.6622 16.3341 86.6622 11.9907C86.6622 7.6659 89.9811 4.13921 94.0902 4.13921C98.1992 4.13921 101.518 7.64733 101.518 11.9907C101.501 16.3341 98.1817 19.8422 94.0902 19.8422ZM107.506 9.6891C106.207 9.6891 105.1 8.83527 104.661 7.62877C103.011 3.15545 98.9016 0 94.0902 0C89.2787 0 85.1696 3.15545 83.5189 7.62877C83.0799 8.83527 81.9736 9.6891 80.6742 9.6891H77.1797V14.3109H80.6742C81.9736 14.3109 83.0799 15.1647 83.5189 16.3712C85.1696 20.8445 89.2787 24 94.0902 24C98.9016 24 103.011 20.826 104.661 16.3712C105.1 15.1647 106.207 14.3295 107.506 14.3295H111.001V9.70766H107.506V9.6891Z" fill="#353940"/>
<path d="M94.108 7.57422C91.7901 7.57422 89.9111 9.56028 89.9111 12.0104C89.9111 14.4605 91.7901 16.4465 94.108 16.4465C96.426 16.4465 98.3049 14.4605 98.3049 12.0104C98.2874 9.56028 96.426 7.57422 94.108 7.57422Z" fill="#353940"/>
<path d="M35.5785 12.0093H25.5341V9.46635C25.5341 6.53364 27.7818 4.15777 30.5563 4.15777C33.3308 4.15777 35.5785 6.53364 35.5785 9.46635V12.0093ZM30.5563 0C25.6219 0 21.6006 4.23201 21.6006 9.46635V23.5359H25.5341V16.1485H35.5785V23.5359H39.5119V9.46635C39.5119 4.23201 35.5082 0 30.5563 0Z" fill="#353940"/>
</svg>
