<svg width="287" height="272" viewBox="0 0 287 272" fill="none" xmlns="http://www.w3.org/2000/svg">
<path fill-rule="evenodd" clip-rule="evenodd" d="M16.5926 74.1864L254.112 32.3053L279.241 174.817L217.485 185.706L220.836 204.707L106.826 224.81L103.476 205.809L41.7213 216.698L16.5926 74.1864ZM124.794 89.9402L120.52 89.3703C120.439 90.9458 120.061 92.1567 119.386 93.003C118.711 93.8492 117.818 94.3702 116.708 94.5659C115.204 94.8312 113.883 94.4919 112.747 93.548C111.611 92.6041 110.813 90.825 110.352 88.2105C109.917 85.7466 110.078 83.8807 110.834 82.6129C111.599 81.3434 112.748 80.5736 114.281 80.3033C115.391 80.1076 116.386 80.2521 117.266 80.7368C118.156 81.2199 118.818 81.9759 119.252 83.0049L123.211 81.2886C122.449 79.7164 121.52 78.5711 120.423 77.853C118.58 76.6362 116.393 76.2509 113.863 76.697C110.967 77.2077 108.798 78.5744 107.357 80.7969C105.915 83.01 105.497 85.8375 106.104 89.2795C106.678 92.5335 108.014 94.945 110.114 96.5141C112.212 98.0739 114.634 98.6116 117.38 98.1274C119.6 97.7361 121.332 96.8681 122.579 95.5234C123.833 94.1678 124.572 92.3067 124.794 89.9402ZM125.803 74.9553L129.45 95.6356L133.329 94.9516L130.458 78.6725L137.42 94.2302L141.44 93.5213L142.675 76.5184L145.545 92.7975L149.425 92.1135L145.778 71.4332L139.515 72.5376L138.292 87.2984L132.052 73.8534L125.803 74.9553ZM151.327 84.8399L155.32 83.7285C155.805 85.049 156.476 85.9636 157.332 86.4721C158.197 86.9789 159.264 87.1204 160.534 86.8965C161.878 86.6594 162.84 86.199 163.417 85.5153C164.003 84.8206 164.228 84.0924 164.094 83.3306C164.008 82.8416 163.789 82.4535 163.438 82.1663C163.094 81.8681 162.543 81.6551 161.783 81.5272C161.264 81.4441 160.097 81.3397 158.281 81.2139C155.945 81.0537 154.254 80.6488 153.208 79.9992C151.738 79.0851 150.859 77.8099 150.57 76.1735C150.384 75.1202 150.507 74.0852 150.939 73.0685C151.378 72.0408 152.115 71.1884 153.15 70.5115C154.194 69.8328 155.511 69.3534 157.1 69.0732C159.696 68.6155 161.747 68.8404 163.255 69.7478C164.772 70.6536 165.731 72.0505 166.132 73.9386L161.989 74.8583C161.623 73.8271 161.103 73.1333 160.429 72.777C159.763 72.4095 158.843 72.3295 157.667 72.5368C156.454 72.7507 155.548 73.1674 154.949 73.7869C154.564 74.1845 154.418 74.6514 154.513 75.1875C154.599 75.6765 154.88 76.0585 155.355 76.3335C155.959 76.6827 157.32 76.918 159.435 77.0394C161.551 77.1608 163.139 77.3948 164.199 77.7412C165.267 78.0766 166.152 78.6429 166.855 79.4402C167.566 80.2263 168.036 81.273 168.267 82.5802C168.476 83.7652 168.342 84.933 167.866 86.0835C167.391 87.2341 166.595 88.1694 165.481 88.8895C164.365 89.6002 162.909 90.1139 161.113 90.4306C158.499 90.8916 156.385 90.6438 154.771 89.6871C153.156 88.721 152.008 87.1053 151.327 84.8399ZM172.313 126.483L168.852 126.727C168.07 126.78 167.292 126.879 166.52 127.022C165.791 127.153 165.068 127.321 164.356 127.527L161.016 128.517L155.254 124.084L149.929 128.553L153.295 134.999L151.74 138.117C151.064 139.48 150.537 140.912 150.169 142.387L149.325 145.754L142.553 148.556L143.727 155.362L151.028 155.631L152.943 158.509C153.78 159.769 154.755 160.931 155.85 161.973L158.352 164.359L157.353 171.606L163.856 173.945L167.792 167.762L171.255 167.515C172.774 167.412 174.279 167.146 175.743 166.722L179.083 165.732L184.845 170.165L190.17 165.696L186.809 159.245L188.361 156.135C188.691 155.472 188.984 154.793 189.24 154.099C189.513 153.368 189.744 152.622 189.932 151.865L190.776 148.498L197.546 145.698L196.364 138.872L189.067 138.608L187.15 135.727C186.313 134.468 185.338 133.306 184.243 132.263L181.741 129.878L182.744 122.64L176.245 120.302L172.313 126.483ZM162.507 153.454C159.012 149.288 159.555 143.078 163.721 139.583C167.886 136.088 174.096 136.631 177.591 140.796C181.087 144.962 180.543 151.172 176.378 154.667C172.212 158.162 166.002 157.619 162.507 153.454ZM135.611 120.113L133.3 118.987C132.779 118.732 132.243 118.506 131.695 118.313C131.179 118.126 130.652 117.966 130.119 117.835L127.609 117.232L125.554 112.254L120.482 113.148L120.254 118.532L118.102 119.956C117.162 120.58 116.294 121.304 115.512 122.114L113.722 123.962L108.339 123.251L106.571 128.053L111.156 130.93L111.319 133.486C111.389 134.605 111.584 135.711 111.9 136.786L112.622 139.244L109.296 143.524L112.603 147.433L117.419 144.924L119.732 146.049C120.745 146.545 121.809 146.932 122.906 147.203L125.416 147.805L127.471 152.784L132.543 151.889L132.776 146.505L134.924 145.084C135.381 144.781 135.821 144.453 136.242 144.103C136.688 143.735 137.113 143.342 137.514 142.926L139.303 141.078L144.684 141.789L146.454 136.972L141.87 134.099L141.707 131.541C141.637 130.422 141.442 129.316 141.125 128.241L140.403 125.783L143.728 121.511L140.424 117.604L135.611 120.113ZM119.328 133.787C118.628 129.819 121.277 126.036 125.245 125.336C129.213 124.637 132.996 127.286 133.696 131.253C134.395 135.221 131.746 139.004 127.778 139.704C123.811 140.404 120.027 137.754 119.328 133.787Z" fill="url(#paint0_linear_2757_52429)" fill-opacity="0.2"/>
<path fill-rule="evenodd" clip-rule="evenodd" d="M60.5926 114.186L298.112 72.3053L323.241 214.817L261.485 225.706L264.836 244.707L150.826 264.81L147.476 245.809L85.7213 256.698L60.5926 114.186ZM168.794 129.94L164.52 129.37C164.439 130.946 164.061 132.157 163.386 133.003C162.711 133.849 161.818 134.37 160.708 134.566C159.204 134.831 157.883 134.492 156.747 133.548C155.611 132.604 154.813 130.825 154.352 128.211C153.917 125.747 154.078 123.881 154.834 122.613C155.599 121.343 156.748 120.574 158.281 120.303C159.391 120.108 160.386 120.252 161.266 120.737C162.156 121.22 162.818 121.976 163.252 123.005L167.211 121.289C166.449 119.716 165.52 118.571 164.423 117.853C162.58 116.636 160.393 116.251 157.863 116.697C154.967 117.208 152.798 118.574 151.357 120.797C149.915 123.01 149.497 125.838 150.104 129.28C150.678 132.533 152.014 134.945 154.114 136.514C156.212 138.074 158.634 138.612 161.38 138.127C163.6 137.736 165.332 136.868 166.579 135.523C167.833 134.168 168.572 132.307 168.794 129.94ZM169.803 114.955L173.45 135.636L177.329 134.952L174.458 118.673L181.42 134.23L185.44 133.521L186.675 116.518L189.545 132.797L193.425 132.113L189.778 111.433L183.515 112.538L182.292 127.298L176.052 113.853L169.803 114.955ZM195.327 124.84L199.32 123.729C199.805 125.049 200.476 125.964 201.332 126.472C202.197 126.979 203.264 127.12 204.534 126.897C205.878 126.659 206.84 126.199 207.417 125.515C208.003 124.821 208.228 124.092 208.094 123.331C208.008 122.842 207.789 122.453 207.438 122.166C207.094 121.868 206.543 121.655 205.783 121.527C205.264 121.444 204.097 121.34 202.281 121.214C199.945 121.054 198.254 120.649 197.208 119.999C195.738 119.085 194.859 117.81 194.57 116.174C194.384 115.12 194.507 114.085 194.939 113.069C195.378 112.041 196.115 111.188 197.15 110.511C198.194 109.833 199.511 109.353 201.1 109.073C203.696 108.615 205.747 108.84 207.255 109.748C208.772 110.654 209.731 112.051 210.132 113.939L205.989 114.858C205.623 113.827 205.103 113.133 204.429 112.777C203.763 112.41 202.843 112.329 201.667 112.537C200.454 112.751 199.548 113.167 198.949 113.787C198.564 114.185 198.418 114.651 198.513 115.187C198.599 115.676 198.88 116.059 199.355 116.334C199.959 116.683 201.32 116.918 203.435 117.039C205.551 117.161 207.139 117.395 208.199 117.741C209.267 118.077 210.152 118.643 210.855 119.44C211.566 120.226 212.036 121.273 212.267 122.58C212.476 123.765 212.342 124.933 211.866 126.084C211.391 127.234 210.595 128.169 209.481 128.89C208.365 129.6 206.909 130.114 205.113 130.431C202.499 130.892 200.385 130.644 198.771 129.687C197.156 128.721 196.008 127.105 195.327 124.84ZM216.313 166.483L212.852 166.727C212.07 166.78 211.292 166.879 210.52 167.022C209.791 167.153 209.068 167.321 208.356 167.527L205.016 168.517L199.254 164.084L193.929 168.553L197.295 174.999L195.74 178.117C195.064 179.48 194.537 180.912 194.169 182.387L193.325 185.754L186.553 188.556L187.727 195.362L195.028 195.631L196.943 198.509C197.78 199.769 198.755 200.931 199.85 201.973L202.352 204.359L201.353 211.606L207.856 213.945L211.792 207.762L215.255 207.515C216.774 207.412 218.279 207.146 219.743 206.722L223.083 205.732L228.845 210.165L234.17 205.696L230.809 199.245L232.361 196.135C232.691 195.472 232.984 194.793 233.24 194.099C233.513 193.368 233.744 192.622 233.932 191.865L234.776 188.498L241.546 185.698L240.364 178.872L233.067 178.608L231.15 175.727C230.313 174.468 229.338 173.306 228.243 172.263L225.741 169.878L226.744 162.64L220.245 160.302L216.313 166.483ZM206.507 193.454C203.012 189.288 203.555 183.078 207.721 179.583C211.886 176.088 218.096 176.631 221.591 180.796C225.087 184.962 224.543 191.172 220.378 194.667C216.212 198.162 210.002 197.619 206.507 193.454ZM179.611 160.113L177.3 158.987C176.779 158.732 176.243 158.506 175.695 158.313C175.179 158.126 174.652 157.966 174.119 157.835L171.609 157.232L169.554 152.254L164.482 153.148L164.254 158.532L162.102 159.956C161.162 160.58 160.294 161.304 159.512 162.114L157.722 163.962L152.339 163.251L150.571 168.053L155.156 170.93L155.319 173.486C155.389 174.605 155.584 175.711 155.9 176.786L156.622 179.244L153.296 183.524L156.603 187.433L161.419 184.924L163.732 186.049C164.745 186.545 165.809 186.932 166.906 187.203L169.416 187.805L171.471 192.784L176.543 191.889L176.776 186.505L178.924 185.084C179.381 184.781 179.821 184.453 180.242 184.103C180.688 183.735 181.113 183.342 181.514 182.926L183.303 181.078L188.684 181.789L190.454 176.972L185.87 174.099L185.707 171.541C185.637 170.422 185.442 169.316 185.125 168.241L184.403 165.783L187.728 161.511L184.424 157.604L179.611 160.113ZM163.328 173.787C162.628 169.819 165.277 166.036 169.245 165.336C173.213 164.637 176.996 167.286 177.696 171.253C178.395 175.221 175.746 179.004 171.778 179.704C167.811 180.404 164.027 177.754 163.328 173.787Z" fill="url(#paint1_linear_2757_52429)"/>
<defs>
<linearGradient id="paint0_linear_2757_52429" x1="142.172" y1="117.963" x2="162.04" y2="218.594" gradientUnits="userSpaceOnUse">
<stop stop-color="white"/>
<stop offset="1" stop-color="white" stop-opacity="0"/>
</linearGradient>
<linearGradient id="paint1_linear_2757_52429" x1="186.172" y1="157.963" x2="206.04" y2="258.594" gradientUnits="userSpaceOnUse">
<stop stop-color="white"/>
<stop offset="1" stop-color="white" stop-opacity="0"/>
</linearGradient>
</defs>
</svg>
