<svg width="287" height="280" viewBox="0 0 287 280" fill="none" xmlns="http://www.w3.org/2000/svg">
<g opacity="0.2">
<path fill-rule="evenodd" clip-rule="evenodd" d="M121.428 48.4184L28.3633 64.8282L44.773 157.893L137.837 141.483L121.428 48.4184ZM235.17 28.3628L142.105 44.7725L158.515 137.837L251.58 121.427L235.17 28.3628ZM255.228 142.109L162.164 158.519L178.574 251.583L271.638 235.173L255.228 142.109ZM48.418 178.574L141.482 162.165L157.892 255.229L64.8277 271.639L48.418 178.574Z" fill="url(#paint0_linear_2950_46498)"/>
</g>
<path fill-rule="evenodd" clip-rule="evenodd" d="M165.428 88.4184L72.3633 104.828L88.773 197.893L181.837 181.483L165.428 88.4184ZM279.17 68.3628L186.105 84.7725L202.515 177.837L295.58 161.427L279.17 68.3628ZM299.228 182.109L206.164 198.519L222.574 291.583L315.638 275.173L299.228 182.109ZM92.418 218.574L185.482 202.165L201.892 295.229L108.828 311.639L92.418 218.574Z" fill="url(#paint1_linear_2950_46498)"/>
<defs>
<linearGradient id="paint0_linear_2950_46498" x1="142.324" y1="129.142" x2="168.993" y2="257.715" gradientUnits="userSpaceOnUse">
<stop stop-color="white"/>
<stop offset="1" stop-color="white" stop-opacity="0"/>
</linearGradient>
<linearGradient id="paint1_linear_2950_46498" x1="186.324" y1="169.142" x2="212.993" y2="297.715" gradientUnits="userSpaceOnUse">
<stop stop-color="white"/>
<stop offset="1" stop-color="white" stop-opacity="0"/>
</linearGradient>
</defs>
</svg>
