<svg width="297" height="280" viewBox="0 0 297 280" fill="none" xmlns="http://www.w3.org/2000/svg">
<g opacity="0.2">
<path fill-rule="evenodd" clip-rule="evenodd" d="M0.421204 82.4804L197.383 47.7507L217.289 160.643C203.838 168.241 195.973 183.733 198.808 199.813L124.947 212.837C121.351 192.441 101.901 178.823 81.505 182.419C61.1091 186.015 47.4904 205.465 51.0865 225.861L26.4684 230.202L0.421204 82.4804ZM272.669 186.79L321.91 178.108L308.485 101.967L254.937 62.9884L214.033 70.2008L229.228 156.371C249.623 152.776 269.072 166.394 272.669 186.79ZM112.637 215.008C115.035 228.605 105.956 241.572 92.3584 243.969C78.761 246.367 65.7945 237.288 63.397 223.69C60.9994 210.093 70.0786 197.127 83.6759 194.729C97.2733 192.332 110.24 201.411 112.637 215.008ZM240.084 217.922C253.681 215.524 262.761 202.558 260.363 188.961C257.965 175.363 244.999 166.284 231.402 168.682C217.804 171.079 208.725 184.046 211.123 197.643C213.52 211.24 226.487 220.32 240.084 217.922Z" fill="url(#paint0_linear_2759_47924)"/>
</g>
<path fill-rule="evenodd" clip-rule="evenodd" d="M44.4181 128.376L241.38 93.6467L261.286 206.539C247.835 214.137 239.97 229.629 242.805 245.709L168.944 258.733C165.347 238.337 145.898 224.719 125.502 228.315C105.106 231.911 91.4873 251.361 95.0834 271.757L70.4653 276.098L44.4181 128.376ZM316.666 232.686L365.907 224.004L352.481 147.863L298.934 108.884L258.03 116.097L273.225 202.267C293.62 198.672 313.069 212.29 316.666 232.686ZM156.635 260.905C159.032 274.502 149.953 287.469 136.356 289.866C122.758 292.264 109.792 283.185 107.394 269.587C104.997 255.99 114.076 243.024 127.673 240.626C141.27 238.228 154.237 247.308 156.635 260.905ZM284.081 263.817C297.678 261.419 306.757 248.453 304.36 234.856C301.962 221.258 288.996 212.179 275.398 214.577C261.801 216.974 252.722 229.941 255.119 243.538C257.517 257.135 270.483 266.215 284.081 263.817Z" fill="url(#paint1_linear_2759_47924)"/>
<defs>
<linearGradient id="paint0_linear_2759_47924" x1="155.138" y1="125.573" x2="157.393" y2="248.519" gradientUnits="userSpaceOnUse">
<stop stop-color="white"/>
<stop offset="1" stop-color="white" stop-opacity="0"/>
</linearGradient>
<linearGradient id="paint1_linear_2759_47924" x1="199.135" y1="171.469" x2="201.39" y2="294.416" gradientUnits="userSpaceOnUse">
<stop stop-color="white"/>
<stop offset="1" stop-color="white" stop-opacity="0"/>
</linearGradient>
</defs>
</svg>
