<svg width="287" height="272" viewBox="0 0 287 272" fill="none" xmlns="http://www.w3.org/2000/svg">
<path fill-rule="evenodd" clip-rule="evenodd" d="M255.635 59.4768C258.274 74.4459 248.279 88.7204 233.31 91.3599C218.341 93.9994 204.066 84.0042 201.427 69.0351C198.788 54.066 208.783 39.7915 223.752 37.152C238.721 34.5126 252.995 44.5077 255.635 59.4768ZM57.1353 122.425C72.1044 119.785 82.0996 105.511 79.4601 90.5418C76.8207 75.5727 62.5461 65.5776 47.577 68.217C32.6079 70.8565 22.6128 85.131 25.2523 100.1C27.8917 115.069 42.1663 125.064 57.1353 122.425ZM18.8688 143.148L12.4854 186.192L120.901 167.076L100.181 128.81L59.5246 135.979L18.8688 143.148ZM195.044 112.083L188.661 155.127L297.076 136.011L276.356 97.7454L235.7 104.914L195.044 112.083ZM177.106 129.217C179.746 144.186 169.75 158.461 154.781 161.1C139.812 163.739 125.538 153.744 122.898 138.775C120.259 123.806 130.254 109.532 145.223 106.892C160.192 104.253 174.467 114.248 177.106 129.217ZM116.515 181.823L110.132 224.868L218.547 205.751L197.827 167.486L157.171 174.654L116.515 181.823Z" fill="url(#paint0_linear_2757_52468)" fill-opacity="0.2"/>
<path fill-rule="evenodd" clip-rule="evenodd" d="M299.635 99.4768C302.274 114.446 292.279 128.72 277.31 131.36C262.341 133.999 248.066 124.004 245.427 109.035C242.788 94.066 252.783 79.7915 267.752 77.152C282.721 74.5126 296.995 84.5077 299.635 99.4768ZM101.135 162.425C116.104 159.785 126.1 145.511 123.46 130.542C120.821 115.573 106.546 105.578 91.577 108.217C76.6079 110.856 66.6128 125.131 69.2523 140.1C71.8917 155.069 86.1663 165.064 101.135 162.425ZM62.8688 183.148L56.4854 226.192L164.901 207.076L144.181 168.81L103.525 175.979L62.8688 183.148ZM239.044 152.083L232.661 195.127L341.076 176.011L320.356 137.745L279.7 144.914L239.044 152.083ZM221.106 169.217C223.746 184.186 213.75 198.461 198.781 201.1C183.812 203.739 169.538 193.744 166.898 178.775C164.259 163.806 174.254 149.532 189.223 146.892C204.192 144.253 218.467 154.248 221.106 169.217ZM160.515 221.823L154.132 264.868L262.547 245.751L241.827 207.486L201.171 214.654L160.515 221.823Z" fill="url(#paint1_linear_2757_52468)"/>
<defs>
<linearGradient id="paint0_linear_2757_52468" x1="152.351" y1="116.116" x2="168.54" y2="218.126" gradientUnits="userSpaceOnUse">
<stop stop-color="white"/>
<stop offset="1" stop-color="white" stop-opacity="0"/>
</linearGradient>
<linearGradient id="paint1_linear_2757_52468" x1="196.351" y1="156.116" x2="212.54" y2="258.126" gradientUnits="userSpaceOnUse">
<stop stop-color="white"/>
<stop offset="1" stop-color="white" stop-opacity="0"/>
</linearGradient>
</defs>
</svg>
