<svg width="287" height="280" viewBox="0 0 287 280" fill="none" xmlns="http://www.w3.org/2000/svg">
<g opacity="0.2">
<path fill-rule="evenodd" clip-rule="evenodd" d="M240.106 77.9325L267.084 230.93L271.202 254.288L71.7787 289.452L67.66 266.093L32.9195 69.0703L28.8008 45.7119L150.155 24.3139L240.106 77.9325ZM120.323 190.087L166.117 121.805L181.591 132.383L135.797 200.664L120.323 190.087ZM135.418 132.874C137.022 141.969 130.791 150.655 121.492 152.294C112.211 153.931 103.368 147.903 101.764 138.808C100.161 129.714 106.408 121.025 115.69 119.388C124.989 117.749 133.815 123.78 135.418 132.874ZM167.522 183.763C169.126 192.857 177.968 198.885 187.25 197.249C196.549 195.609 202.78 186.923 201.176 177.828C199.57 168.718 190.747 162.703 181.448 164.343C172.166 165.979 165.916 174.652 167.522 183.763Z" fill="url(#paint0_linear_2758_48000)"/>
</g>
<path fill-rule="evenodd" clip-rule="evenodd" d="M284.106 117.933L311.084 270.93L315.202 294.288L115.779 329.452L111.66 306.093L76.9195 109.07L72.8008 85.7119L194.155 64.3139L284.106 117.933ZM164.323 230.087L210.117 161.805L225.591 172.383L179.797 240.664L164.323 230.087ZM179.418 172.874C181.022 181.969 174.791 190.655 165.492 192.294C156.211 193.931 147.368 187.903 145.764 178.808C144.161 169.714 150.408 161.025 159.69 159.388C168.989 157.749 177.815 163.78 179.418 172.874ZM211.522 223.763C213.126 232.857 221.968 238.885 231.25 237.249C240.549 235.609 246.78 226.923 245.176 217.828C243.57 208.718 234.747 202.703 225.448 204.343C216.166 205.979 209.916 214.652 211.522 223.763Z" fill="url(#paint1_linear_2758_48000)"/>
<defs>
<linearGradient id="paint0_linear_2758_48000" x1="141.785" y1="125.27" x2="174.218" y2="276.555" gradientUnits="userSpaceOnUse">
<stop stop-color="white"/>
<stop offset="1" stop-color="white" stop-opacity="0"/>
</linearGradient>
<linearGradient id="paint1_linear_2758_48000" x1="185.785" y1="165.27" x2="218.218" y2="316.555" gradientUnits="userSpaceOnUse">
<stop stop-color="white"/>
<stop offset="1" stop-color="white" stop-opacity="0"/>
</linearGradient>
</defs>
</svg>
