<svg width="45" height="42" viewBox="0 0 45 42" fill="none" xmlns="http://www.w3.org/2000/svg">
<path d="M3.41811 18.2875C1.76126 18.2875 0.418112 16.9444 0.418112 15.2875V3C0.418112 1.34315 1.76126 0 3.41811 0H14.5241C16.1809 0 17.5241 1.34315 17.5241 3V14.4375C17.5241 22.2542 16.6082 27.8833 14.7765 31.325C12.6177 35.3396 9.43517 38.512 5.22889 40.8421C3.92308 41.5655 2.31035 41.061 1.51669 39.7967L0.907851 38.8268C-0.0861726 37.2433 0.625051 35.169 2.15606 34.0959C3.80209 32.9421 5.11359 31.4935 6.09056 29.75C7.32817 27.5779 8.13907 24.7915 8.52329 21.3908C8.71413 19.7016 7.33757 18.2875 5.63767 18.2875H3.41811ZM30.894 18.2875C29.2372 18.2875 27.894 16.9444 27.894 15.2875V3C27.894 1.34315 29.2372 0 30.894 0H42C43.6569 0 45 1.34315 45 3V14.4375C45 22.2542 44.0841 27.8833 42.2524 31.325C40.0936 35.3396 36.9111 38.512 32.7048 40.8422C31.399 41.5655 29.7863 41.061 28.9926 39.7967L28.3838 38.8268C27.3897 37.2433 28.101 35.169 29.632 34.0959C31.278 32.9421 32.5895 31.4935 33.5665 29.75C34.8041 27.5779 35.615 24.7915 35.9992 21.3908C36.19 19.7016 34.8135 18.2875 33.1136 18.2875H30.894Z" fill="#79DFFF"/>
</svg>
