<svg width="16" height="16" viewBox="0 0 16 16" fill="none" xmlns="http://www.w3.org/2000/svg">
<path fill-rule="evenodd" clip-rule="evenodd" d="M11.9951 7C11.9951 9.76208 9.75698 12 6.99756 12C4.23814 12 2 9.76208 2 7C2 4.23792 4.23814 2 6.99756 2C9.75698 2 11.9951 4.23792 11.9951 7ZM11.1862 12.608C10.0184 13.4822 8.5684 14 6.99756 14C3.13292 14 0 10.866 0 7C0 3.13401 3.13292 0 6.99756 0C10.8622 0 13.9951 3.13401 13.9951 7C13.9951 8.57328 13.4763 10.0253 12.6004 11.1943L16.0001 14.5874L14.5848 16L11.1862 12.608Z" fill="#202226"/>
</svg>
