<svg width="20" height="16" viewBox="0 0 20 16" xmlns="http://www.w3.org/2000/svg">
<g clip-path="url(#clip0_1982_55147)">
<path fill-rule="evenodd" clip-rule="evenodd" d="M19.6891 1.89497C18.9634 2.2152 18.1849 2.43261 17.3681 2.52956C18.2025 2.03011 18.843 1.23687 19.1426 0.293794C18.3611 0.757987 17.4974 1.09291 16.5778 1.27506C15.8404 0.490635 14.7915 0 13.6281 0C11.3982 0 9.58846 1.80977 9.58846 4.03966C9.58846 4.35696 9.62371 4.66544 9.69422 4.95924C6.33616 4.79177 3.36003 3.18178 1.36811 0.737422C1.02143 1.33382 0.821654 2.02718 0.821654 2.76754C0.821654 4.16893 1.53557 5.4058 2.61967 6.12853C1.95863 6.10797 1.33579 5.92582 0.789336 5.62321C0.789336 5.64084 0.789336 5.65553 0.789336 5.67315C0.789336 7.62982 2.18192 9.26331 4.02988 9.63349C3.69202 9.72457 3.33359 9.77451 2.96635 9.77451C2.70487 9.77451 2.45221 9.74807 2.20542 9.70107C2.71956 11.3052 4.21203 12.4745 5.97773 12.5068C4.59396 13.5909 2.85471 14.2372 0.959737 14.2372C0.633626 14.2372 0.313391 14.2167 -0.00390625 14.1814C1.78236 15.3272 3.90649 15.9971 6.18926 15.9971C13.6193 15.9971 17.6825 9.84209 17.6825 4.50386C17.6825 4.32758 17.6795 4.15424 17.6707 3.9809C18.461 3.41094 19.1456 2.69996 19.6861 1.88909L19.6891 1.89497Z"/>
</g>
<defs>
<clipPath id="clip0_1982_55147">
<rect width="19.688" height="16"/>
</clipPath>
</defs>
</svg>
